<?xml version="1.0" encoding="UTF-8"?>
<svg width="483px" height="25px" viewBox="0 0 483 25" version="1.1" xmlns="http://www.w3.org/2000/svg" xmlns:xlink="http://www.w3.org/1999/xlink">
    <!-- Generator: Sketch 42 (36781) - http://www.bohemiancoding.com/sketch -->
    <title>Gedankenwerk</title>
    <desc>Created with Sketch.</desc>
    <defs></defs>
    <g id="Gedankenwerk" stroke="none" stroke-width="1" fill="none" fill-rule="evenodd">
        <g transform="translate(-40.000000, -30.000000)" id="Header">
            <g>
                <g id="Gedankenwerk" transform="translate(40.000000, 30.000000)">
                    <path d="M280.737276,24.7689133 L278.49381,24.7689133 L276.837689,15.5928473 C276.799174,15.3681786 276.757451,15.1033945 276.712517,14.7984869 C276.667583,14.4935794 276.62586,14.1967002 276.587345,13.9078404 C276.542412,13.5740469 276.497478,13.2338394 276.452545,12.8872077 L276.375516,12.8872077 C276.337001,13.2338394 276.295278,13.5740469 276.250344,13.9078404 C276.211829,14.1967002 276.170106,14.4935794 276.125172,14.7984869 C276.080238,15.1033945 276.038515,15.3681786 276,15.5928473 L274.392022,24.7689133 L272.138927,24.7689133 L269,11.2407153 L270.829436,11.2407153 L272.909216,20.5900963 C272.95415,20.7890886 272.999083,21.0265919 273.044017,21.3026135 C273.08895,21.578635 273.133883,21.8418144 273.178817,22.0921596 C273.223751,22.3874384 273.271893,22.6891319 273.323246,22.997249 L273.400275,22.997249 C273.425952,22.7533229 273.454837,22.4997721 273.486933,22.2365887 C273.519028,22.01192 273.554333,21.7567644 273.592847,21.4711142 C273.631362,21.185464 273.676295,20.8917943 273.727648,20.5900963 L275.297111,11.2407153 L277.694635,11.2407153 L279.379642,20.5900963 C279.424576,20.8340223 279.469509,21.095597 279.514443,21.3748281 C279.559377,21.6540592 279.597891,21.9156338 279.629986,22.1595598 C279.668501,22.4420005 279.703805,22.7212274 279.735901,22.997249 L279.81293,22.997249 L279.94773,22.130674 C279.986245,21.886748 280.029573,21.6251733 280.077717,21.3459422 C280.12586,21.0667111 280.175607,20.814765 280.22696,20.5900963 L282.297111,11.2407153 L283.876204,11.2407153 L280.737276,24.7689133 Z M285.445667,24.7689133 L285.445667,11.2407153 L293.793673,11.2407153 L293.793673,12.8198074 L287.188446,12.8198074 L287.188446,17.0563961 L292.927098,17.0563961 L292.927098,18.6354883 L287.188446,18.6354883 L287.188446,23.1898212 L293.909216,23.1898212 L293.909216,24.7689133 L285.445667,24.7689133 Z M296.133425,11.2407153 L301.265475,11.2407153 C301.766165,11.2407153 302.229938,11.3193481 302.656809,11.4766162 C303.083679,11.6338843 303.451168,11.8569449 303.759285,12.1458047 C304.067402,12.4346644 304.309719,12.7828957 304.486245,13.1905089 C304.66277,13.5981222 304.751032,14.0522671 304.751032,14.5529574 C304.751032,14.9445228 304.698075,15.3071969 304.59216,15.6409904 C304.486244,15.9747839 304.340212,16.2748726 304.154058,16.5412655 C303.967904,16.8076584 303.748053,17.037138 303.494498,17.2297111 C303.240943,17.4222843 302.96974,17.5699215 302.68088,17.6726272 L302.68088,17.7496561 C303.014674,17.8523618 303.327601,18.0080228 303.61967,18.2166437 C303.911739,18.4252647 304.16529,18.6756061 304.38033,18.9676754 C304.59537,19.2597447 304.763869,19.5935332 304.885832,19.9690509 C305.007795,20.3445686 305.068776,20.7473614 305.068776,21.1774415 C305.068776,21.748742 304.967676,22.2558437 304.765475,22.698762 C304.563273,23.1416803 304.28886,23.5171924 303.942228,23.8253095 C303.595597,24.1334266 303.192804,24.3677204 302.733838,24.5281981 C302.274872,24.6886757 301.785422,24.7689133 301.265475,24.7689133 L296.133425,24.7689133 L296.133425,11.2407153 Z M297.866575,18.6354883 L297.866575,23.1898212 L301.024759,23.1898212 C301.345715,23.1898212 301.642594,23.1416786 301.915406,23.045392 C302.188218,22.9491054 302.422512,22.8062825 302.618294,22.6169188 C302.814077,22.4275552 302.968133,22.1932614 303.080468,21.9140303 C303.192802,21.6347992 303.248968,21.3122439 303.248968,20.9463549 C303.248968,20.6382378 303.194407,20.3445681 303.085282,20.065337 C302.976157,19.7861059 302.820496,19.5405788 302.618294,19.3287483 C302.416093,19.1169178 302.170565,18.9484188 301.881706,18.8232462 C301.592846,18.6980737 301.268686,18.6354883 300.909216,18.6354883 L297.866575,18.6354883 Z M297.866575,12.8198074 L297.866575,17.0563961 L300.74553,17.0563961 C301.079323,17.0563961 301.381017,16.9986251 301.650619,16.8830812 C301.920221,16.7675372 302.151306,16.613481 302.343879,16.4209078 C302.536452,16.2283347 302.684089,16.0036693 302.786795,15.7469051 C302.889501,15.4901409 302.940853,15.2173329 302.940853,14.9284732 C302.940853,14.2223715 302.751492,13.694408 302.372765,13.3445667 C301.994038,12.9947254 301.493355,12.8198074 300.870702,12.8198074 L297.866575,12.8198074 Z M315.188446,11 C315.785423,11 316.335853,11.0882614 316.839752,11.2647868 C317.343652,11.4413122 317.775331,11.6916536 318.134801,12.0158184 C318.49427,12.3399833 318.775102,12.7299381 318.977304,13.1856946 C319.179506,13.6414512 319.280605,14.1517624 319.280605,14.7166437 L319.280605,15.0632737 L317.662999,15.0632737 L317.662999,14.8899587 C317.662999,14.4727169 317.600413,14.1116476 317.475241,13.80674 C317.350068,13.5018325 317.176755,13.2514911 316.955296,13.0557084 C316.733837,12.8599257 316.470657,12.7154979 316.16575,12.6224209 C315.860842,12.5293439 315.528658,12.4828061 315.169188,12.4828061 C314.848233,12.4828061 314.54333,12.5261344 314.25447,12.6127923 C313.965611,12.6994502 313.713665,12.8358542 313.498624,13.0220083 C313.283584,13.2081623 313.113481,13.4488752 312.988308,13.7441541 C312.863136,14.0394329 312.80055,14.395688 312.80055,14.8129298 C312.80055,15.2109144 312.856717,15.5591457 312.969051,15.8576341 C313.081385,16.1561225 313.232232,16.4032544 313.421596,16.5990371 C313.610959,16.7948199 313.829206,16.9408523 314.076341,17.0371389 C314.323477,17.1334255 314.585051,17.1815681 314.861073,17.1815681 L315.872077,17.1815681 L315.872077,18.6162311 L314.899587,18.6162311 C314.597889,18.6162311 314.307429,18.6515356 314.028198,18.7221458 C313.748967,18.792756 313.50023,18.9195314 313.281981,19.1024759 C313.063731,19.2854204 312.888813,19.5309476 312.757221,19.8390646 C312.62563,20.1471817 312.559835,20.5419508 312.559835,21.0233838 C312.559835,21.4663021 312.62242,21.8466284 312.747593,22.1643741 C312.872765,22.4821199 313.047683,22.7420898 313.272352,22.9442916 C313.497021,23.1464934 313.769829,23.2941307 314.090784,23.3872077 C314.411739,23.4802847 314.764785,23.5268226 315.149931,23.5268226 C316.825318,23.5268226 317.662999,22.6859323 317.662999,21.0041265 L317.662999,17.1815681 L320.657497,17.1815681 L320.657497,18.6354883 L319.280605,18.6354883 L319.280605,20.9367263 C319.280605,21.5529604 319.189134,22.1114143 319.00619,22.6121045 C318.823245,23.1127948 318.553647,23.5396589 318.197387,23.8927098 C317.841126,24.2457606 317.39661,24.5185685 316.863824,24.7111417 C316.331038,24.9037149 315.714813,25 315.015131,25 C314.398897,25 313.834024,24.9117386 313.320495,24.7352132 C312.806967,24.5586878 312.36566,24.3051369 311.996561,23.974553 C311.627463,23.643969 311.338607,23.2395714 311.129986,22.761348 C310.921365,22.2831246 310.817056,21.7423231 310.817056,21.1389271 C310.817056,20.6895897 310.868408,20.2851921 310.971114,19.9257221 C311.07382,19.5662522 311.213433,19.2485112 311.389959,18.9724897 C311.566484,18.6964681 311.776707,18.463779 312.020633,18.2744154 C312.264559,18.0850518 312.530948,17.9358098 312.819807,17.826685 L312.819807,17.7496561 C312.569462,17.6084358 312.336773,17.444751 312.121733,17.258597 C311.906693,17.0724429 311.720542,16.8574061 311.563274,16.6134801 C311.406006,16.369554 311.284044,16.0919319 311.197387,15.7806052 C311.110729,15.4692786 311.0674,15.1146283 311.0674,14.7166437 C311.0674,14.1132478 311.16529,13.58047 311.361073,13.1182944 C311.556856,12.6561187 311.836083,12.2677687 312.198762,11.9532325 C312.561442,11.6386963 312.996329,11.4011929 313.503439,11.2407153 C314.010548,11.0802376 314.572211,11 315.188446,11 Z M331.922971,24.7689133 L329.689133,24.7689133 L325.568088,11.2407153 L327.484182,11.2407153 L330.834938,22.8624484 L330.911967,22.8624484 L334.35901,11.2407153 L336.044017,11.2407153 L331.922971,24.7689133 Z M339.308116,24.7689133 L337.574966,24.7689133 L337.574966,11.2407153 L339.308116,11.2407153 L339.308116,24.7689133 Z M342.071527,24.7689133 L342.071527,11.2407153 L346.27923,11.2407153 C347.075199,11.2407153 347.789314,11.378724 348.421596,11.6547455 C349.053878,11.9307671 349.59147,12.3431885 350.034388,12.892022 C350.477306,13.4408556 350.815909,14.1244801 351.050206,14.9429161 C351.284504,15.7613521 351.401651,16.7161798 351.401651,17.8074278 C351.401651,18.9628669 351.284504,19.9754656 351.050206,20.8452545 C350.815909,21.7150433 350.477306,22.4403914 350.034388,23.0213205 C349.59147,23.6022496 349.053878,24.0387422 348.421596,24.3308116 C347.789314,24.6228809 347.075199,24.7689133 346.27923,24.7689133 L342.071527,24.7689133 Z M343.814305,12.8198074 L343.814305,23.1898212 L346.115543,23.1898212 C346.648329,23.1898212 347.12815,23.0887218 347.555021,22.8865199 C347.981891,22.6843181 348.34617,22.3810199 348.647868,21.9766162 C348.949566,21.5722126 349.182255,21.063506 349.345942,20.4504814 C349.509629,19.8374568 349.591472,19.1201325 349.591472,18.2984869 L349.591472,17.3163686 C349.591472,16.5653332 349.509629,15.9073848 349.345942,15.3425034 C349.182255,14.7776221 348.949566,14.3090344 348.647868,13.9367263 C348.34617,13.5644181 347.981891,13.2851912 347.555021,13.0990371 C347.12815,12.9128831 346.648329,12.8198074 346.115543,12.8198074 L343.814305,12.8198074 Z M353.741403,24.7689133 L353.741403,11.2407153 L362.089409,11.2407153 L362.089409,12.8198074 L355.484182,12.8198074 L355.484182,17.0563961 L361.222834,17.0563961 L361.222834,18.6354883 L355.484182,18.6354883 L355.484182,23.1898212 L362.204952,23.1898212 L362.204952,24.7689133 L353.741403,24.7689133 Z M369.436039,11 C370.264103,11 371.008708,11.1444277 371.669876,11.4332875 C372.331044,11.7221472 372.889498,12.1586399 373.345254,12.7427785 C373.801011,13.3269172 374.150847,14.0554748 374.394773,14.9284732 C374.638699,15.8014716 374.76066,16.8253036 374.76066,18 C374.76066,19.1746964 374.638699,20.2001332 374.394773,21.0763411 C374.150847,21.9525491 373.801011,22.6811067 373.345254,23.2620358 C372.889498,23.8429648 372.331044,24.2778528 371.669876,24.5667125 C371.008708,24.8555723 370.264103,25 369.436039,25 C368.607974,25 367.864973,24.8555723 367.207015,24.5667125 C366.549057,24.2778528 365.992208,23.8429648 365.536451,23.2620358 C365.080695,22.6811067 364.730859,21.9525491 364.486933,21.0763411 C364.243007,20.2001332 364.121045,19.1746964 364.121045,18 C364.121045,16.8253036 364.243007,15.8014716 364.486933,14.9284732 C364.730859,14.0554748 365.080695,13.3269172 365.536451,12.7427785 C365.992208,12.1586399 366.549057,11.7221472 367.207015,11.4332875 C367.864973,11.1444277 368.607974,11 369.436039,11 Z M369.436039,12.5983494 C368.896834,12.5983494 368.410594,12.6994488 367.977304,12.9016506 C367.544014,13.1038525 367.174921,13.4103602 366.870014,13.8211829 C366.565106,14.2320057 366.332417,14.7439217 366.171939,15.3569464 C366.011462,15.969971 365.931224,16.6872953 365.931224,17.5089409 L365.931224,18.5006878 C365.931224,19.3223333 366.011462,20.0412624 366.171939,20.6574966 C366.332417,21.2737307 366.565106,21.7856467 366.870014,22.19326 C367.174921,22.6008732 367.544014,22.9057762 367.977304,23.107978 C368.410594,23.3101798 368.896834,23.4112792 369.436039,23.4112792 C369.981663,23.4112792 370.471112,23.3101798 370.904402,23.107978 C371.337691,22.9057762 371.70518,22.6008732 372.006878,22.19326 C372.308576,21.7856467 372.541265,21.2737307 372.704952,20.6574966 C372.868639,20.0412624 372.950481,19.3223333 372.950481,18.5006878 L372.950481,17.5089409 C372.950481,16.6872953 372.868639,15.969971 372.704952,15.3569464 C372.541265,14.7439217 372.308576,14.2320057 372.006878,13.8211829 C371.70518,13.4103602 371.337691,13.1038525 370.904402,12.9016506 C370.471112,12.6994488 369.981663,12.5983494 369.436039,12.5983494 Z M378.85282,19.1843191 L378.85282,24.7689133 L377.110041,24.7689133 L377.110041,11.2407153 L381.943604,11.2407153 C382.611191,11.2407153 383.196925,11.3370004 383.700825,11.5295736 C384.204725,11.7221468 384.626775,11.9917452 384.966988,12.3383769 C385.3072,12.6850086 385.562356,13.1006395 385.732462,13.585282 C385.902568,14.0699245 385.98762,14.604307 385.98762,15.1884457 C385.98762,15.7854225 385.894545,16.3278288 385.708391,16.8156809 C385.522237,17.3035329 385.254243,17.7239781 384.904402,18.0770289 C384.55456,18.4300797 384.129301,18.7028876 383.628611,18.8954608 C383.12792,19.088034 382.566257,19.1843191 381.943604,19.1843191 L378.85282,19.1843191 Z M378.85282,12.8198074 L378.85282,17.6148556 L381.885832,17.6148556 C382.232464,17.6148556 382.545391,17.5570845 382.824622,17.4415406 C383.103853,17.3259967 383.344566,17.1623119 383.546768,16.9504814 C383.748969,16.7386509 383.90463,16.4834953 384.013755,16.1850069 C384.12288,15.8865185 384.177442,15.5543347 384.177442,15.1884457 C384.177442,14.4502485 383.981662,13.8709329 383.590096,13.4504814 C383.198531,13.03003 382.630448,12.8198074 381.885832,12.8198074 L378.85282,12.8198074 Z M397.378267,14.9862448 C397.378267,15.8271477 397.168044,16.5541006 396.747593,17.1671252 C396.327141,17.7801498 395.738197,18.2182472 394.980743,18.4814305 L397.696011,24.7689133 L395.770289,24.7689133 L393.257221,18.7895461 L389.636864,18.7895461 L389.636864,24.7689133 L387.894085,24.7689133 L387.894085,11.2407153 L393.343879,11.2407153 C394.005047,11.2407153 394.587572,11.3321862 395.091472,11.5151307 C395.595372,11.6980752 396.017421,11.9532308 396.357634,12.2806052 C396.697847,12.6079796 396.953002,13.001144 397.123109,13.46011 C397.293215,13.9190761 397.378267,14.4277826 397.378267,14.9862448 Z M389.636864,12.8198074 L389.636864,17.2200825 L393.276479,17.2200825 C393.62311,17.2200825 393.937642,17.1671257 394.220083,17.0612105 C394.502523,16.9552952 394.743236,16.8044485 394.942228,16.6086657 C395.141221,16.412883 395.295277,16.1769844 395.404402,15.9009629 C395.513526,15.6249413 395.568088,15.3200383 395.568088,14.9862448 C395.568088,14.3122387 395.372308,13.7826704 394.980743,13.3975241 C394.589177,13.0123777 394.021095,12.8198074 393.276479,12.8198074 L389.636864,12.8198074 Z M404.474553,11 C405.302618,11 406.047223,11.1444277 406.708391,11.4332875 C407.369559,11.7221472 407.928012,12.1586399 408.383769,12.7427785 C408.839525,13.3269172 409.189361,14.0554748 409.433287,14.9284732 C409.677214,15.8014716 409.799175,16.8253036 409.799175,18 C409.799175,19.1746964 409.677214,20.2001332 409.433287,21.0763411 C409.189361,21.9525491 408.839525,22.6811067 408.383769,23.2620358 C407.928012,23.8429648 407.369559,24.2778528 406.708391,24.5667125 C406.047223,24.8555723 405.302618,25 404.474553,25 C403.646488,25 402.903488,24.8555723 402.24553,24.5667125 C401.587571,24.2778528 401.030722,23.8429648 400.574966,23.2620358 C400.119209,22.6811067 399.769373,21.9525491 399.525447,21.0763411 C399.281521,20.2001332 399.15956,19.1746964 399.15956,18 C399.15956,16.8253036 399.281521,15.8014716 399.525447,14.9284732 C399.769373,14.0554748 400.119209,13.3269172 400.574966,12.7427785 C401.030722,12.1586399 401.587571,11.7221472 402.24553,11.4332875 C402.903488,11.1444277 403.646488,11 404.474553,11 Z M404.474553,12.5983494 C403.935348,12.5983494 403.449108,12.6994488 403.015818,12.9016506 C402.582529,13.1038525 402.213436,13.4103602 401.908528,13.8211829 C401.603621,14.2320057 401.370932,14.7439217 401.210454,15.3569464 C401.049976,15.969971 400.969739,16.6872953 400.969739,17.5089409 L400.969739,18.5006878 C400.969739,19.3223333 401.049976,20.0412624 401.210454,20.6574966 C401.370932,21.2737307 401.603621,21.7856467 401.908528,22.19326 C402.213436,22.6008732 402.582529,22.9057762 403.015818,23.107978 C403.449108,23.3101798 403.935348,23.4112792 404.474553,23.4112792 C405.020177,23.4112792 405.509626,23.3101798 405.942916,23.107978 C406.376206,22.9057762 406.743694,22.6008732 407.045392,22.19326 C407.34709,21.7856467 407.579779,21.2737307 407.743466,20.6574966 C407.907154,20.0412624 407.988996,19.3223333 407.988996,18.5006878 L407.988996,17.5089409 C407.988996,16.6872953 407.907154,15.969971 407.743466,15.3569464 C407.579779,14.7439217 407.34709,14.2320057 407.045392,13.8211829 C406.743694,13.4103602 406.376206,13.1038525 405.942916,12.9016506 C405.509626,12.6994488 405.020177,12.5983494 404.474553,12.5983494 Z M412.148556,24.7689133 L412.148556,11.2407153 L416.356259,11.2407153 C417.152228,11.2407153 417.866343,11.378724 418.498624,11.6547455 C419.130906,11.9307671 419.668498,12.3431885 420.111417,12.892022 C420.554335,13.4408556 420.892938,14.1244801 421.127235,14.9429161 C421.361533,15.7613521 421.47868,16.7161798 421.47868,17.8074278 C421.47868,18.9628669 421.361533,19.9754656 421.127235,20.8452545 C420.892938,21.7150433 420.554335,22.4403914 420.111417,23.0213205 C419.668498,23.6022496 419.130906,24.0387422 418.498624,24.3308116 C417.866343,24.6228809 417.152228,24.7689133 416.356259,24.7689133 L412.148556,24.7689133 Z M413.891334,12.8198074 L413.891334,23.1898212 L416.192572,23.1898212 C416.725358,23.1898212 417.205179,23.0887218 417.63205,22.8865199 C418.05892,22.6843181 418.423199,22.3810199 418.724897,21.9766162 C419.026595,21.5722126 419.259284,21.063506 419.422971,20.4504814 C419.586658,19.8374568 419.668501,19.1201325 419.668501,18.2984869 L419.668501,17.3163686 C419.668501,16.5653332 419.586658,15.9073848 419.422971,15.3425034 C419.259284,14.7776221 419.026595,14.3090344 418.724897,13.9367263 C418.423199,13.5644181 418.05892,13.2851912 417.63205,13.0990371 C417.205179,12.9128831 416.725358,12.8198074 416.192572,12.8198074 L413.891334,12.8198074 Z M432.734525,20.3686382 C432.734525,21.1325118 432.633426,21.8016936 432.431224,22.3762036 C432.229022,22.9507136 431.935353,23.433744 431.550206,23.8253095 C431.16506,24.216875 430.696472,24.5105446 430.144429,24.7063274 C429.592386,24.9021101 428.969742,25 428.276479,25 C427.583215,25 426.960571,24.9021101 426.408528,24.7063274 C425.856485,24.5105446 425.387897,24.216875 425.002751,23.8253095 C424.617605,23.433744 424.323935,22.9507136 424.121733,22.3762036 C423.919531,21.8016936 423.818432,21.1325118 423.818432,20.3686382 L423.818432,11.2407153 L425.551582,11.2407153 L425.551582,20.474553 C425.551582,21.4309997 425.793899,22.1595573 426.278542,22.6602476 C426.763184,23.1609379 427.429157,23.4112792 428.276479,23.4112792 C429.123801,23.4112792 429.789773,23.1609379 430.274415,22.6602476 C430.759058,22.1595573 431.001376,21.4309997 431.001376,20.474553 L431.001376,11.2407153 L432.734525,11.2407153 L432.734525,20.3686382 Z M437.231087,18.394773 L442.594223,11.2407153 L444.519945,11.2407153 L440.456671,16.7001376 L444.664374,24.7689133 L442.690509,24.7689133 L439.397524,18.1636864 L437.231087,20.5708391 L437.231087,24.7689133 L435.488308,24.7689133 L435.488308,11.2407153 L437.231087,11.2407153 L437.231087,18.394773 Z M445.270977,11.2407153 L454.379642,11.2407153 L454.379642,12.8198074 L450.691884,12.8198074 L450.691884,24.7689133 L448.958735,24.7689133 L448.958735,12.8198074 L445.270977,12.8198074 L445.270977,11.2407153 Z M457.884457,24.7689133 L456.151307,24.7689133 L456.151307,11.2407153 L457.884457,11.2407153 L457.884457,24.7689133 Z M465.558459,11 C466.386524,11 467.131129,11.1444277 467.792297,11.4332875 C468.453465,11.7221472 469.011919,12.1586399 469.467675,12.7427785 C469.923432,13.3269172 470.273268,14.0554748 470.517194,14.9284732 C470.76112,15.8014716 470.883081,16.8253036 470.883081,18 C470.883081,19.1746964 470.76112,20.2001332 470.517194,21.0763411 C470.273268,21.9525491 469.923432,22.6811067 469.467675,23.2620358 C469.011919,23.8429648 468.453465,24.2778528 467.792297,24.5667125 C467.131129,24.8555723 466.386524,25 465.558459,25 C464.730395,25 463.987394,24.8555723 463.329436,24.5667125 C462.671478,24.2778528 462.114629,23.8429648 461.658872,23.2620358 C461.203116,22.6811067 460.85328,21.9525491 460.609354,21.0763411 C460.365427,20.2001332 460.243466,19.1746964 460.243466,18 C460.243466,16.8253036 460.365427,15.8014716 460.609354,14.9284732 C460.85328,14.0554748 461.203116,13.3269172 461.658872,12.7427785 C462.114629,12.1586399 462.671478,11.7221472 463.329436,11.4332875 C463.987394,11.1444277 464.730395,11 465.558459,11 Z M465.558459,12.5983494 C465.019255,12.5983494 464.533015,12.6994488 464.099725,12.9016506 C463.666435,13.1038525 463.297342,13.4103602 462.992435,13.8211829 C462.687527,14.2320057 462.454838,14.7439217 462.29436,15.3569464 C462.133883,15.969971 462.053645,16.6872953 462.053645,17.5089409 L462.053645,18.5006878 C462.053645,19.3223333 462.133883,20.0412624 462.29436,20.6574966 C462.454838,21.2737307 462.687527,21.7856467 462.992435,22.19326 C463.297342,22.6008732 463.666435,22.9057762 464.099725,23.107978 C464.533015,23.3101798 465.019255,23.4112792 465.558459,23.4112792 C466.104083,23.4112792 466.593533,23.3101798 467.026823,23.107978 C467.460112,22.9057762 467.827601,22.6008732 468.129298,22.19326 C468.430996,21.7856467 468.663686,21.2737307 468.827373,20.6574966 C468.99106,20.0412624 469.072902,19.3223333 469.072902,18.5006878 L469.072902,17.5089409 C469.072902,16.6872953 468.99106,15.969971 468.827373,15.3569464 C468.663686,14.7439217 468.430996,14.2320057 468.129298,13.8211829 C467.827601,13.4103602 467.460112,13.1038525 467.026823,12.9016506 C466.593533,12.6994488 466.104083,12.5983494 465.558459,12.5983494 Z M482.148556,24.7689133 L480.704264,24.7689133 L475.649243,16.1513067 C475.559376,16.0036673 475.464696,15.8287493 475.365199,15.6265475 C475.265703,15.4243456 475.171023,15.2269611 475.081155,15.0343879 C474.97845,14.8161383 474.875746,14.5850539 474.77304,14.3411279 L474.715268,14.3603851 C474.728106,14.5978921 474.740944,14.8257669 474.753783,15.0440165 C474.766621,15.2301706 474.776249,15.4259504 474.782669,15.6313618 C474.789088,15.8367731 474.792297,16.0100864 474.792297,16.1513067 L474.792297,24.7689133 L473.232462,24.7689133 L473.232462,11.2407153 L474.734525,11.2407153 L479.770289,19.7331499 C479.840899,19.861532 479.922741,20.0300311 480.015818,20.238652 C480.108895,20.4472729 480.200366,20.647867 480.290234,20.8404402 C480.38652,21.071528 480.486015,21.3090313 480.588721,21.5529574 L480.646492,21.5337001 C480.633654,21.2769359 480.624026,21.0330135 480.617607,20.8019257 C480.604768,20.6029334 480.596745,20.4023394 480.593535,20.2001376 C480.590326,19.9979357 480.588721,19.8422747 480.588721,19.7331499 L480.588721,11.2407153 L482.148556,11.2407153 L482.148556,24.7689133 Z" id="-" fill="#FFFFFF"></path>
                    <path d="M237.416262,0.200000763 L237.416262,12.5539527 L246.232963,0.200000763 L251.258826,0.200000763 L244.12313,10.0109973 L251.464663,24.3408942 L246.404494,24.3408942 L241.172794,13.5676984 L237.416262,18.1896915 L237.416262,24.3408942 L232.88784,24.3408942 L232.88784,0.200000763 L237.416262,0.200000763 Z M221.258028,14.2721657 L216.592381,14.2721657 L216.592381,24.3408942 L212.098265,24.3408942 L212.098265,0.200000763 L222.184296,0.200000763 C223.396456,0.200000763 224.462797,0.371820351 225.383352,0.71546468 C226.303907,1.05910901 227.072931,1.5373402 227.690446,2.15017258 C228.307961,2.76300497 228.77395,3.49037456 229.088425,4.33230317 C229.4029,5.17423178 229.560136,6.09346657 229.560136,7.09003513 C229.560136,7.82314303 229.465794,8.51042138 229.277109,9.1518908 C229.088424,9.79336021 228.819695,10.3775468 228.470913,10.9044681 C228.122131,11.4313894 227.699025,11.898166 227.201582,12.3048118 C226.70414,12.7114575 226.140951,13.0407784 225.512001,13.2927843 L230.160495,24.3408942 L225.271857,24.3408942 L221.258028,14.2721657 Z M221.721162,4.22061932 L216.592381,4.22061932 L216.592381,10.3030935 L221.549631,10.3030935 C222.647436,10.3030935 223.447907,10.0195912 223.951067,9.45257808 C224.454228,8.88556494 224.705804,8.09805849 224.705804,7.09003513 C224.705804,6.20801468 224.468522,5.50928169 223.99395,4.9938152 C223.519378,4.4783487 222.76179,4.22061932 221.721162,4.22061932 Z M208.444651,24.3408942 L192.886776,24.3408942 L192.886776,0.200000763 L208.238814,0.200000763 L208.238814,4.22061932 L197.380892,4.22061932 L197.380892,9.97663307 L206.695034,9.97663307 L206.695034,13.9972516 L197.380892,13.9972516 L197.380892,20.3374578 L208.444651,20.3374578 L208.444651,24.3408942 Z M185.510937,24.3408942 L180.982514,24.3408942 L177.70627,8.96288736 C177.637657,8.65360746 177.574763,8.30424097 177.517585,7.9147774 C177.460408,7.52531382 177.408949,7.15303805 177.363207,6.79793891 C177.317465,6.38556571 177.271724,5.96747138 177.225982,5.54364337 L177.071604,5.54364337 C177.002991,6.00183581 176.945815,6.44283942 176.900073,6.86666743 C176.842896,7.23322138 176.791437,7.61122447 176.745695,8.00068805 C176.699953,8.39015162 176.648494,8.71088152 176.591317,8.96288736 L173.349378,24.3408942 L168.820956,24.3408942 L163.589256,0.200000763 L168.049066,0.200000763 L170.930789,15.0453616 C170.987967,15.3088222 171.042284,15.6352795 171.093744,16.024743 C171.145203,16.4142066 171.193803,16.7864824 171.239545,17.1415815 C171.285287,17.5654095 171.336746,17.9949585 171.393923,18.4302413 L171.531148,18.4302413 C171.57689,17.9835037 171.622631,17.5482274 171.668373,17.1243994 C171.714115,16.7578454 171.762715,16.3855697 171.814175,16.0075609 C171.865634,15.6295521 171.919952,15.3088222 171.977129,15.0453616 L174.893159,0.200000763 L179.987634,0.200000763 L182.869357,15.0453616 C182.915099,15.2859126 182.966558,15.5980515 183.023735,15.9817877 C183.080912,16.3655239 183.132371,16.7406633 183.178113,17.1072173 C183.223855,17.5310453 183.275314,17.9720489 183.332491,18.4302413 L183.469716,18.4302413 L183.606941,17.1931279 C183.652683,16.8494836 183.701283,16.4800715 183.752743,16.0848805 C183.804202,15.6896895 183.864237,15.3431867 183.93285,15.0453616 L186.883186,0.200000763 L190.742637,0.200000763 L185.510937,24.3408942 Z" id="werk" fill="#FFFFFF"></path>
                    <path d="M10.2232564,0 C11.4354159,0 12.5960984,0.191865206 13.7053387,0.575601375 C14.814579,0.959337543 15.7922968,1.52634218 16.6385214,2.2766323 C17.4847459,3.02692242 18.1594284,3.9547482 18.6625889,5.06013746 C19.1657495,6.16552672 19.417326,7.43985533 19.417326,8.88316151 L14.8202912,8.88316151 C14.8202912,8.05841512 14.694503,7.33677285 14.4429227,6.71821306 C14.1913424,6.09965326 13.8511424,5.57846718 13.4223123,5.15463918 C12.9934823,4.73081117 12.4903293,4.41294493 11.9128382,4.20103093 C11.3353472,3.98911692 10.7207,3.88316151 10.0688784,3.88316151 C9.1311701,3.88316151 8.31926412,4.06070842 7.63313609,4.41580756 C6.94700807,4.7709067 6.38096094,5.28063814 5.93497773,5.94501718 C5.48899451,6.60939622 5.16022977,7.41981194 4.94867363,8.37628866 C4.73711748,9.33276538 4.631341,10.4123651 4.631341,11.6151203 L4.631341,13.3848797 C4.631341,14.6105445 4.73997631,15.7044625 4.95725018,16.6666667 C5.17452406,17.6288708 5.50900645,18.4392865 5.9607074,19.0979381 C6.41240835,19.7565898 6.9813143,20.2577302 7.66744232,20.6013746 C8.35357035,20.9450189 9.16547633,21.1168385 10.1031846,21.1168385 C10.7893127,21.1168385 11.4211127,20.9793828 11.9986038,20.7044674 C12.5760949,20.4295519 13.0735303,20.0400942 13.4909248,19.5360825 C13.9083194,19.0320708 14.2342253,18.4221113 14.4686524,17.7061856 C14.7030794,16.9902599 14.8202912,16.1912988 14.8202912,15.3092784 L9.39990692,15.3092784 L9.39990692,11.443299 L19.417326,11.443299 L19.417326,24.5704467 L16.5012965,24.5704467 L15.7294063,21.8900344 C14.9517945,22.9209674 14.0055238,23.6970192 12.8905658,24.2182131 C11.7756077,24.739407 10.5777605,25 9.29698823,25 C7.82181298,25 6.506754,24.7508616 5.35177182,24.2525773 C4.19678965,23.754293 3.22478953,22.9925595 2.4357423,21.967354 C1.64669508,20.9421484 1.04348324,19.6449105 0.626088691,18.0756014 C0.208694143,16.5062923 0,14.6506407 0,12.5085911 C0,10.3779962 0.228705911,8.52807199 0.686124593,6.95876289 C1.14354328,5.38945378 1.80679042,4.08935223 2.67588591,3.05841924 C3.54498141,2.02748625 4.61418154,1.26002543 5.88351838,0.756013746 C7.15285523,0.252002062 8.59942011,0 10.2232564,0 Z M38.8861113,24.5704467 L38.8861113,20.5670103 L27.8223522,20.5670103 L27.8223522,14.2268041 L37.1364936,14.2268041 L37.1364936,10.2061856 L27.8223522,10.2061856 L27.8223522,4.45017182 L38.6802739,4.45017182 L38.6802739,0.429553265 L23.3282362,0.429553265 L23.3282362,24.5704467 L38.8861113,24.5704467 Z M50.3786982,24.5704467 L42.5397248,24.5704467 L42.5397248,0.429553265 L50.3786982,0.429553265 C51.8767444,0.429553265 53.2232505,0.675828007 54.4182568,1.16838488 C55.6132631,1.66094175 56.6252867,2.39690232 57.4543581,3.37628866 C58.2834294,4.355675 58.9209472,5.57559407 59.3669304,7.03608247 C59.8129136,8.49657088 60.0359019,10.2004485 60.0359019,12.1477663 C60.0359019,14.2096323 59.8129136,16.0166016 59.3669304,17.5687285 C58.9209472,19.1208554 58.2834294,20.4152296 57.4543581,21.45189 C56.6252867,22.4885504 55.6132631,23.2674659 54.4182568,23.7886598 C53.2232505,24.3098537 51.8767444,24.5704467 50.3786982,24.5704467 Z M49.9498704,4.45017182 L47.0338408,4.45017182 L47.0338408,20.5670103 L49.9498704,20.5670103 C50.7846594,20.5670103 51.5365301,20.409509 52.205505,20.0945017 C52.8744798,19.7794944 53.4462446,19.3098542 53.9208164,18.685567 C54.3953883,18.0612798 54.758459,17.276637 55.0100392,16.3316151 C55.2616195,15.3865932 55.3874078,14.2840842 55.3874078,13.024055 L55.3874078,11.2714777 C55.3874078,10.1374514 55.2616195,9.14376143 55.0100392,8.29037801 C54.758459,7.43699459 54.3953883,6.72680696 53.9208164,6.15979381 C53.4462446,5.59278067 52.8744798,5.16609536 52.205505,4.87972509 C51.5365301,4.59335481 50.7846594,4.45017182 49.9498704,4.45017182 Z M81.9747357,24.5704467 L77.377701,24.5704467 L75.9025331,19.8281787 L67.0172196,19.8281787 L65.576358,24.5704467 L61.2194668,24.5704467 L68.9898278,0.429553265 L74.2215278,0.429553265 L81.9747357,24.5704467 Z M71.408417,4.48453608 C71.3398042,4.90836409 71.2654748,5.31500378 71.1854265,5.70446735 C71.1168137,6.03665687 71.0424843,6.39175069 70.962436,6.76975945 C70.8823877,7.14776821 70.796623,7.47422543 70.7051393,7.74914089 L68.2522439,15.8075601 L74.6675088,15.8075601 L72.2489196,7.74914089 C72.1574359,7.42840619 72.0659535,7.07903969 71.9744698,6.70103093 C71.882986,6.32302216 71.8086566,5.96792835 71.7514793,5.63573883 C71.671431,5.25773007 71.6028192,4.87399966 71.5456419,4.48453608 L71.408417,4.48453608 Z M100.705937,24.5704467 L100.705937,0.429553265 L96.6921082,0.429553265 L96.6921082,14.347079 C96.6921082,14.5647204 96.6978259,14.7880859 96.7092614,15.0171821 C96.7092614,15.2806428 96.714979,15.5670088 96.7264145,15.8762887 L96.6234958,15.9793814 C96.4862702,15.6701015 96.3547643,15.3722809 96.2289741,15.0859107 C96.1146195,14.8453596 95.99169,14.5990849 95.8601822,14.347079 C95.7286743,14.0950732 95.6171802,13.8888897 95.5256964,13.7285223 L88.0812446,0.429553265 L84.1188751,0.429553265 L84.1188751,24.5704467 L88.0812446,24.5704467 L88.0812446,11.1340206 C88.0812446,10.9736533 88.0783858,10.7817881 88.072668,10.5584192 C88.0669503,10.3350504 88.0583738,10.1145486 88.0469384,9.89690722 C88.0355029,9.64490137 88.0240676,9.38717199 88.0126321,9.12371134 L88.1498571,9.02061856 C88.3099536,9.35280808 88.4586124,9.66781065 88.595838,9.96563574 C88.7216282,10.2176416 88.8445576,10.46678 88.96463,10.7130584 C89.0847024,10.9593369 89.1790436,11.1454747 89.2476564,11.2714777 L96.6921082,24.5704467 L100.705937,24.5704467 Z M109.436873,0.429553265 L104.90845,0.429553265 L104.90845,24.5704467 L109.436873,24.5704467 L109.436873,18.419244 L113.193405,13.7972509 L118.425105,24.5704467 L123.485274,24.5704467 L116.14374,10.2405498 L123.279436,0.429553265 L118.253574,0.429553265 L109.436873,12.7835052 L109.436873,0.429553265 Z M141.255901,24.5704467 L141.255901,20.5670103 L130.192141,20.5670103 L130.192141,14.2268041 L139.506283,14.2268041 L139.506283,10.2061856 L130.192141,10.2061856 L130.192141,4.45017182 L141.050063,4.45017182 L141.050063,0.429553265 L125.698025,0.429553265 L125.698025,24.5704467 L141.255901,24.5704467 Z M161.496576,24.5704467 L161.496576,0.429553265 L157.482747,0.429553265 L157.482747,14.347079 C157.482747,14.5647204 157.488465,14.7880859 157.4999,15.0171821 C157.4999,15.2806428 157.505618,15.5670088 157.517053,15.8762887 L157.414135,15.9793814 C157.276909,15.6701015 157.145403,15.3722809 157.019613,15.0859107 C156.905258,14.8453596 156.782329,14.5990849 156.650821,14.347079 C156.519313,14.0950732 156.407819,13.8888897 156.316335,13.7285223 L148.871884,0.429553265 L144.909514,0.429553265 L144.909514,24.5704467 L148.871884,24.5704467 L148.871884,11.1340206 C148.871884,10.9736533 148.869025,10.7817881 148.863307,10.5584192 C148.857589,10.3350504 148.849013,10.1145486 148.837577,9.89690722 C148.826142,9.64490137 148.814707,9.38717199 148.803271,9.12371134 L148.940496,9.02061856 C149.100593,9.35280808 149.249251,9.66781065 149.386477,9.96563574 C149.512267,10.2176416 149.635197,10.46678 149.755269,10.7130584 C149.875341,10.9593369 149.969683,11.1454747 150.038295,11.2714777 L157.482747,24.5704467 L161.496576,24.5704467 Z M258,24.5704467 L253.145669,24.5704467 L253.145669,19.742268 L258,19.742268 L258,24.5704467 Z" id="Gedankenwerk." fill="#5CEB00"></path>
                </g>
            </g>
        </g>
    </g>
</svg>