<?xml version="1.0" encoding="UTF-8"?>
<svg width="195px" height="195px" viewBox="0 0 195 195" version="1.1" xmlns="http://www.w3.org/2000/svg" xmlns:xlink="http://www.w3.org/1999/xlink">
    <!-- Generator: Sketch 42 (36781) - http://www.bohemiancoding.com/sketch -->
    <title>PlayButton</title>
    <desc>Created with Sketch.</desc>
    <defs>
        <path d="M65.625,123.958333 L65.625,51.0416667 L131.249232,88.5645833 L65.625,123.958333 Z M87.5,0 C39.1777412,0 0,39.1777412 0,87.5 C0,135.821491 39.1777412,175 87.5,175 C135.822259,175 174.999232,135.821491 174.999232,87.5 C174.999232,39.1777412 135.822259,0 87.5,0 L87.5,0 Z M87.5,14.5833333 C127.70625,14.5833333 160.415899,47.29375 160.415899,87.5 C160.415899,127.70625 127.70625,160.416667 87.5,160.416667 C47.29375,160.416667 14.5833333,127.70625 14.5833333,87.5 C14.5833333,47.29375 47.29375,14.5833333 87.5,14.5833333 L87.5,14.5833333 Z" id="path-1"></path>
        <filter x="-50%" y="-50%" width="200%" height="200%" filterUnits="objectBoundingBox" id="filter-2">
            <feOffset dx="0" dy="0" in="SourceAlpha" result="shadowOffsetOuter1"></feOffset>
            <feGaussianBlur stdDeviation="5" in="shadowOffsetOuter1" result="shadowBlurOuter1"></feGaussianBlur>
            <feColorMatrix values="0 0 0 0 0   0 0 0 0 0   0 0 0 0 0  0 0 0 0.25 0" type="matrix" in="shadowBlurOuter1"></feColorMatrix>
        </filter>
    </defs>
    <g id="Gedankenwerk" stroke="none" stroke-width="1" fill="none" fill-rule="evenodd">
        <g transform="translate(-622.000000, -1461.000000)" id="Unsere-Arbeit">
            <g transform="translate(-44.000000, 1027.000000)">
                <g id="Razer-Blade-Pro" transform="translate(84.000000, 181.000000)">
                    <g id="PlayButton" transform="translate(592.000000, 263.000000)">
                        <g id="playbutton">
                            <use fill="black" fill-opacity="1" filter="url(#filter-2)" xlink:href="#path-1"></use>
                            <use fill="#FFFFFF" fill-rule="evenodd" xlink:href="#path-1"></use>
                        </g>
                    </g>
                </g>
            </g>
        </g>
    </g>
</svg>