<svg enable-background="new 0 0 213.1 25" viewBox="0 0 213.1 25" xmlns="http://www.w3.org/2000/svg"><path clip-rule="evenodd" d="m11.7 24.8h-2.2l-1.7-9.2c0-.2-.1-.5-.1-.8s-.1-.6-.1-.9-.1-.7-.1-1h-.1c0 .3-.1.7-.1 1s-.1.6-.1.9-.1.6-.1.8l-1.6 9.2h-2.4l-3.1-13.6h1.8l2.1 9.3c.1.3.1.5.1.8s.1.5.1.8.1.6.1.9h.1c0-.2.1-.5.1-.8 0-.2.1-.5.1-.8s.1-.6.1-.9l1.6-9.3h2.4l1.7 9.3c0 .2.1.5.1.8s.1.5.1.8.1.6.1.8h.1l.1-.9c0-.2.1-.5.1-.8s.1-.5.1-.8l2.1-9.3h1.6zm4.7 0v-13.6h8.3v1.6h-6.6v4.2h5.7v1.6h-5.7v4.6h6.7v1.6zm10.7-13.6h5.1c.5 0 1 .1 1.4.2.4.2.8.4 1.1.7s.6.6.7 1 .3.9.3 1.4c0 .4-.1.8-.2 1.1s-.3.6-.4.9-.4.5-.7.7-.5.3-.8.4v.1c.3.1.6.3.9.5s.5.5.8.8.4.6.5 1 .2.8.2 1.2c0 .6-.1 1.1-.3 1.5s-.5.8-.8 1.1-.7.5-1.2.7-.9.2-1.5.2h-5.1zm1.8 7.4v4.6h3.1c.3 0 .6 0 .9-.1s.5-.2.7-.4.3-.4.5-.7.2-.6.2-1c0-.3-.1-.6-.2-.9s-.3-.5-.5-.7-.4-.4-.7-.5-.6-.2-1-.2zm0-5.8v4.2h2.9c.3 0 .6-.1.9-.2s.5-.3.7-.5.3-.4.4-.7.2-.5.2-.8c0-.7-.2-1.2-.6-1.6s-.9-.5-1.5-.5zm17.3-1.8c.6 0 1.1.1 1.7.3s.9.4 1.3.8.6.7.8 1.2.3 1 .3 1.5v.3h-1.6v-.2c0-.4-.1-.8-.2-1.1s-.3-.6-.5-.8-.5-.3-.8-.4-.6-.1-1-.1c-.3 0-.6 0-.9.1s-.5.2-.8.4c-.2.2-.4.4-.5.7s-.2.7-.2 1.1.1.7.2 1 .3.5.5.7.4.3.7.4.5.1.8.1h1v1.4h-1c-.3 0-.6 0-.9.1s-.5.2-.7.4-.4.4-.5.7-.2.7-.2 1.2c0 .4.1.8.2 1.1s.3.6.5.8.5.3.8.4.7.1 1.1.1c1.7 0 2.5-.8 2.5-2.5v-3.8h3v1.5h-1.4v2.3c0 .6-.1 1.2-.3 1.7s-.5.9-.8 1.3-.8.6-1.3.8-1.3.5-2 .5c-.6 0-1.2-.1-1.7-.3s-1-.4-1.3-.8-.7-.7-.9-1.2-.3-1-.3-1.6c0-.4.1-.9.2-1.2s.2-.7.4-1 .4-.5.6-.7.5-.3.8-.4v-.1c-.3-.1-.5-.3-.7-.5s-.4-.4-.6-.6-.3-.5-.4-.8-.1-.7-.1-1.1c0-.6.1-1.1.3-1.6s.5-.9.8-1.2.8-.6 1.3-.7 1.2-.2 1.8-.2zm16.7 13.8h-2.2l-4.1-13.5h1.9l3.4 11.6h.1l3.4-11.6h1.6zm7.4 0h-1.7v-13.6h1.7zm2.8 0v-13.6h4.2c.8 0 1.5.1 2.1.4s1.2.7 1.6 1.2.8 1.2 1 2.1.4 1.8.4 2.9c0 1.2-.1 2.2-.4 3s-.6 1.6-1 2.2-1 1-1.6 1.3-1.3.4-2.1.4zm1.7-12v10.4h2.3c.5 0 1-.1 1.4-.3s.8-.5 1.1-.9.5-.9.7-1.5.2-1.3.2-2.2v-1c0-.8-.1-1.4-.2-2s-.4-1-.7-1.4-.7-.7-1.1-.8c-.4-.2-.9-.3-1.4-.3zm9.9 12v-13.6h8.3v1.6h-6.6v4.2h5.7v1.6h-5.7v4.6h6.7v1.6zm15.7-13.8c.8 0 1.6.1 2.2.4.7.3 1.2.7 1.7 1.3s.8 1.3 1 2.2.4 1.9.4 3.1-.1 2.2-.4 3.1c-.2.9-.6 1.6-1 2.2-.5.6-1 1-1.7 1.3s-1.4.4-2.2.4-1.6-.1-2.2-.4c-.7-.3-1.2-.7-1.7-1.3s-.8-1.3-1-2.2-.4-1.9-.4-3.1.1-2.2.4-3.1.6-1.6 1-2.2c.5-.6 1-1 1.7-1.3s1.4-.4 2.2-.4zm0 1.6c-.5 0-1 .1-1.5.3s-.8.5-1.1.9-.5.9-.7 1.5-.2 1.3-.2 2.2v1c0 .8.1 1.5.2 2.2s.4 1.1.7 1.5.7.7 1.1.9.9.3 1.5.3c.5 0 1-.1 1.5-.3s.8-.5 1.1-.9.5-.9.7-1.5.2-1.3.2-2.2v-1c0-.8-.1-1.5-.2-2.2-.2-.6-.4-1.1-.7-1.5s-.7-.7-1.1-.9-.9-.3-1.5-.3zm9.5 6.6v5.6h-1.7v-13.6h4.8c.7 0 1.3.1 1.8.3s.9.5 1.3.8.6.8.8 1.2.3 1 .3 1.6-.1 1.1-.3 1.6-.5.9-.8 1.3-.8.6-1.3.8-1.1.3-1.7.3zm0-6.4v4.8h3c.3 0 .7-.1.9-.2s.5-.3.7-.5.4-.5.5-.8.2-.6.2-1c0-.7-.2-1.3-.6-1.7s-1-.6-1.7-.6zm18.5 2.2c0 .8-.2 1.6-.6 2.2s-1 1.1-1.8 1.3l2.7 6.3h-1.9l-2.5-6h-3.6v6h-1.7v-13.6h5.4c.7 0 1.2.1 1.7.3s.9.4 1.3.8.6.7.8 1.2c.1.4.2.9.2 1.5zm-7.8-2.2v4.4h3.6c.3 0 .7-.1.9-.2s.5-.3.7-.5.4-.4.5-.7.2-.6.2-.9c0-.7-.2-1.2-.6-1.6s-1-.6-1.7-.6zm14.9-1.8c.8 0 1.6.1 2.2.4.7.3 1.2.7 1.7 1.3s.8 1.3 1 2.2.4 1.9.4 3.1-.1 2.2-.4 3.1c-.2.9-.6 1.6-1 2.2-.5.6-1 1-1.7 1.3s-1.4.4-2.2.4-1.6-.1-2.2-.4c-.7-.3-1.2-.7-1.7-1.3s-.8-1.3-1-2.2-.4-1.9-.4-3.1.1-2.2.4-3.1.6-1.6 1-2.2c.5-.6 1-1 1.7-1.3s1.3-.4 2.2-.4zm0 1.6c-.5 0-1 .1-1.5.3s-.8.5-1.1.9-.5.9-.7 1.5-.2 1.3-.2 2.2v1c0 .8.1 1.5.2 2.2s.4 1.1.7 1.5.7.7 1.1.9.9.3 1.5.3c.5 0 1-.1 1.5-.3s.8-.5 1.1-.9.5-.9.7-1.5.2-1.3.2-2.2v-1c0-.8-.1-1.5-.2-2.2s-.4-1.1-.7-1.5-.7-.7-1.1-.9-1-.3-1.5-.3zm7.6 12.2v-13.6h4.2c.8 0 1.5.1 2.1.4s1.2.7 1.6 1.2.8 1.2 1 2.1.4 1.8.4 2.9c0 1.2-.1 2.2-.4 3s-.6 1.6-1 2.2-1 1-1.6 1.3-1.3.4-2.1.4zm1.8-12v10.4h2.3c.5 0 1-.1 1.4-.3s.8-.5 1.1-.9.5-.9.7-1.5.2-1.3.2-2.2v-1c0-.8-.1-1.4-.2-2s-.4-1-.7-1.4-.7-.7-1.1-.8c-.4-.2-.9-.3-1.4-.3zm18.8 7.6c0 .8-.1 1.4-.3 2s-.5 1.1-.9 1.4-.9.7-1.4.9c-.6.2-1.2.3-1.9.3s-1.3-.1-1.9-.3-1-.5-1.4-.9-.7-.9-.9-1.4-.3-1.2-.3-2v-9.1h1.7v9.2c0 1 .2 1.7.7 2.2s1.2.8 2 .8 1.5-.3 2-.8.7-1.2.7-2.2v-9.2h1.7v9.1zm4.5-2 5.4-7.2h1.9l-4.1 5.5 4.2 8.1h-2l-3.3-6.6-2.2 2.4v4.2h-1.7v-13.6h1.7zm8.1-7.2h9.1v1.6h-3.7v11.9h-1.7v-11.9h-3.7zm12.6 13.6h-1.7v-13.6h1.7zm7.7-13.8c.8 0 1.6.1 2.2.4.7.3 1.2.7 1.7 1.3s.8 1.3 1 2.2.4 1.9.4 3.1-.1 2.2-.4 3.1c-.2.9-.6 1.6-1 2.2-.5.6-1 1-1.7 1.3s-1.4.4-2.2.4-1.6-.1-2.2-.4c-.7-.3-1.2-.7-1.7-1.3s-.8-1.3-1-2.2-.4-1.9-.4-3.1.1-2.2.4-3.1.6-1.6 1-2.2c.5-.6 1-1 1.7-1.3s1.3-.4 2.2-.4zm0 1.6c-.5 0-1 .1-1.5.3s-.8.5-1.1.9-.5.9-.7 1.5-.2 1.3-.2 2.2v1c0 .8.1 1.5.2 2.2s.4 1.1.7 1.5.7.7 1.1.9.9.3 1.5.3c.5 0 1-.1 1.5-.3s.8-.5 1.1-.9.5-.9.7-1.5.2-1.3.2-2.2v-1c0-.8-.1-1.5-.2-2.2-.2-.6-.4-1.1-.7-1.5s-.7-.7-1.1-.9-1-.3-1.5-.3zm16.5 12.2h-1.4l-5.1-8.6c-.1-.1-.2-.3-.3-.5s-.2-.4-.3-.6-.2-.4-.3-.7h-.1v.7.6.5 8.6h-1.6v-13.6h1.5l5 8.5c.1.1.2.3.2.5s.2.4.3.6.2.5.3.7h.1c0-.3 0-.5 0-.7s0-.4 0-.6 0-.4 0-.5v-8.5h1.6z" fill="#fff" fill-rule="evenodd"/></svg>