<svg enable-background="new 0 0 258 25" viewBox="0 0 258 25" xmlns="http://www.w3.org/2000/svg"><g clip-rule="evenodd" fill-rule="evenodd"><path d="m237.4.2v12.4l8.8-12.4h5l-7.1 9.8 7.3 14.3h-5.1l-5.2-10.8-3.8 4.6v6.2h-4.5v-24.1zm-16.1 14.1h-4.7v10.1h-4.5v-24.2h10.1c1.2 0 2.3.2 3.2.5s1.7.8 2.3 1.4 1.1 1.3 1.4 2.2.5 1.8.5 2.8c0 .7-.1 1.4-.3 2.1-.2.6-.5 1.2-.8 1.8s-.8 1-1.3 1.4-1.1.7-1.7 1l4.6 11h-4.9zm.4-10.1h-5.1v6.1h5c1.1 0 1.9-.3 2.4-.9s.8-1.4.8-2.4c0-.9-.2-1.6-.7-2.1-.6-.4-1.3-.7-2.4-.7zm-13.3 20.1h-15.6v-24.1h15.4v4h-10.9v5.8h9.3v4h-9.3v6.3h11.1zm-22.9 0h-4.5l-3.3-15.3c-.1-.3-.1-.7-.2-1-.1-.4-.1-.8-.2-1.1 0-.4-.1-.8-.1-1.3h-.2c-.1.5-.1.9-.2 1.3s-.1.7-.2 1.1c0 .4-.1.7-.2 1l-3.2 15.4h-4.5l-5.2-24.1h4.5l2.9 14.8c.1.3.1.6.2 1s.1.8.1 1.1c0 .4.1.9.2 1.3h.1c0-.4.1-.9.1-1.3s.1-.7.1-1.1c.1-.4.1-.7.2-1l2.9-14.8h5.1l2.9 14.8c0 .2.1.6.2.9s.1.8.2 1.1c0 .4.1.9.2 1.3h.1l.1-1.2c0-.3.1-.7.1-1.1s.1-.7.2-1l3-14.8h3.9z" fill="#fff"/><path d="m10.2 0c1.2 0 2.4.2 3.5.6s2.1 1 2.9 1.7c.8.8 1.5 1.7 2 2.8s.8 2.4.8 3.8h-4.6c0-.8-.1-1.5-.4-2.2-.3-.6-.6-1.1-1-1.6s-.9-.7-1.5-1-1.2-.3-1.8-.3c-.9 0-1.7.2-2.4.5s-1.3 1-1.8 1.6c-.4.7-.8 1.5-1 2.4-.2 1-.3 2-.3 3.2v1.8c0 1.2.1 2.3.3 3.3s.6 1.8 1 2.4c.5.7 1 1.2 1.7 1.5s1.5.5 2.4.5c.7 0 1.3-.1 1.9-.4s1.1-.7 1.5-1.2.7-1.1 1-1.8.4-1.5.4-2.4h-5.4v-3.9h10v13.1h-2.9l-.8-2.7c-.8 1-1.7 1.8-2.8 2.3s-2.3 1-3.6 1c-1.5 0-2.8-.2-3.9-.7-1.2-.5-2.2-1.3-3-2.3s-1.4-2.4-1.8-3.9-.6-3.4-.6-5.6c0-2.1.2-4 .7-5.5s1.1-2.9 2-3.9 1.9-1.8 3.2-2.3 2.7-.8 4.3-.8zm28.7 24.6v-4h-11.1v-6.3h9.3v-4h-9.3v-5.8h10.9v-4h-15.4v24.1zm11.5 0h-7.8v-24.2h7.8c1.5 0 2.8.2 4 .7s2.2 1.2 3 2.2 1.5 2.2 1.9 3.7.7 3.2.7 5.1c0 2.1-.2 3.9-.7 5.4s-1.1 2.8-1.9 3.9-1.8 1.8-3 2.3-2.5.9-4 .9zm-.5-20.1h-2.9v16.1h2.9c.8 0 1.6-.2 2.3-.5s1.2-.8 1.7-1.4.8-1.4 1.1-2.4c.3-.9.4-2 .4-3.3v-1.8c0-1.1-.1-2.1-.4-3s-.6-1.6-1.1-2.1-1-1-1.7-1.3-1.4-.3-2.3-.3zm32.1 20.1h-4.6l-1.5-4.7h-8.9l-1.4 4.7h-4.4l7.8-24.2h5.2zm-10.6-20.1c-.1.4-.1.8-.2 1.2-.1.3-.2.7-.2 1.1s-.2.7-.3 1l-2.5 8.1h6.4l-2.4-8.1c-.1-.3-.2-.7-.3-1s-.1-.8-.1-1.2c-.1-.4-.1-.8-.2-1.2zm29.3 20.1v-24.2h-4v13.9.7.9l-.1.1c-.1-.3-.3-.6-.4-.9-.1-.2-.2-.5-.4-.7s-.2-.5-.3-.6l-7.4-13.4h-4v24.1h4v-13.4c0-.2 0-.4 0-.6s0-.4 0-.7 0-.5 0-.8c.2.3.3.6.4.9s.2.5.4.7c.1.2.2.4.3.6l7.4 13.3zm8.7-24.2h-4.5v24.1h4.5v-6.2l3.8-4.6 5.2 10.8h5.1l-7.3-14.3 7.1-9.8h-5l-8.8 12.4zm31.9 24.2v-4h-11.1v-6.3h9.3v-4h-9.3v-5.8h10.9v-4h-15.4v24.1zm20.2 0v-24.2h-4v13.9.7.9l-.1.1c-.1-.3-.3-.6-.4-.9-.1-.2-.2-.5-.4-.7-.1-.3-.2-.5-.3-.6l-7.4-13.3h-4v24.1h4v-13.5c0-.2 0-.4 0-.6s0-.4 0-.7 0-.5 0-.8l.1-.1c.2.3.3.6.4.9s.2.5.4.7c.1.2.2.4.3.6l7.4 13.3zm96.5 0h-4.9v-4.8h4.9z" fill="#5ceb00"/></g></svg>