<svg height="25" viewBox="0 0 483 25" width="483" xmlns="http://www.w3.org/2000/svg"><g fill="none" fill-rule="evenodd"><path d="m280.737276 24.7689133h-2.243466l-1.656121-9.176066c-.038515-.2246687-.080238-.4894528-.125172-.7943604-.044934-.3049075-.086657-.6017867-.125172-.8906465-.044933-.3337935-.089867-.674001-.1348-1.0206327h-.077029c-.038515.3466317-.080238.6868392-.125172 1.0206327-.038515.2888598-.080238.585739-.125172.8906465-.044934.3049076-.086657.5696917-.125172.7943604l-1.607978 9.176066h-2.253095l-3.138927-13.528198h1.829436l2.07978 9.349381c.044934.1989923.089867.4364956.134801.7125172.044933.2760215.089866.5392009.1348.7895461.044934.2952788.093076.5969723.144429.9050894h.077029c.025677-.2439261.054562-.4974769.086658-.7606603.032095-.2246687.0674-.4798243.105914-.7654745.038515-.2856502.083448-.5793199.134801-.8810179l1.569463-9.349381h2.397524l1.685007 9.349381c.044934.243926.089867.5055007.134801.7847318s.083448.5408057.115543.7847317c.038515.2824407.073819.5616676.105915.8376892h.077029l.1348-.866575c.038515-.243926.081843-.5055007.129987-.7847318.048143-.2792311.09789-.5311772.149243-.7558459l2.070151-9.349381h1.579093zm4.708391 0v-13.528198h8.348006v1.5790921h-6.605227v4.2365887h5.738652v1.5790922h-5.738652v4.5543329h6.72077v1.5790921zm10.687758-13.528198h5.13205c.50069 0 .964463.0786328 1.391334.2359009.42687.1572681.794359.3803287 1.102476.6691885.308117.2888597.550434.637091.72696 1.0447042.176525.4076133.264787.8617582.264787 1.3624485 0 .3915654-.052957.7542395-.158872 1.088033-.105916.3337935-.251948.6338822-.438102.9002751s-.406005.4958725-.65956.6884456c-.253555.1925732-.524758.3402104-.813618.4429161v.0770289c.333794.1027057.646721.2583667.93879.4669876.292069.208621.54562.4589624.76066.7510317s.383539.6258578.505502 1.0013755.182944.7783105.182944 1.2083906c0 .5713005-.1011 1.0784022-.303301 1.5213205-.202202.4429183-.476615.8184304-.823247 1.1265475-.346631.3081171-.749424.5424109-1.20839.7028886-.458966.1604776-.948416.2407152-1.468363.2407152h-5.13205zm1.73315 7.394773v4.5543329h3.158184c.320956 0 .617835-.0481426.890647-.1444292s.507106-.2391095.702888-.4284732c.195783-.1893636.349839-.4236574.462174-.7028885.112334-.2792311.1685-.6017864.1685-.9676754 0-.3081171-.054561-.6017868-.163686-.8810179s-.264786-.5247582-.466988-.7365887c-.202201-.2118305-.447729-.3803295-.736588-.5055021-.28886-.1251725-.61302-.1877579-.97249-.1877579zm0-5.8156809v4.2365887h2.878955c.333793 0 .635487-.057771.905089-.1733149.269602-.115544.500687-.2696002.69326-.4621734.192573-.1925731.34021-.4172385.442916-.6740027s.154058-.5295722.154058-.8184319c0-.7061017-.189361-1.2340652-.568088-1.5839065s-.87941-.5247593-1.502063-.5247593zm17.321871-1.8198074c.596977 0 1.147407.0882614 1.651306.2647868.5039.1765254.935579.4268668 1.295049.7510316.359469.3241649.640301.7141197.842503 1.1698762.202202.4557566.303301.9660678.303301 1.5309491v.34663h-1.617606v-.173315c0-.4172418-.062586-.7783111-.187758-1.0832187-.125173-.3049075-.298486-.5552489-.519945-.7510316s-.484639-.3402105-.789546-.4332875c-.304908-.093077-.637092-.1396148-.996562-.1396148-.320955 0-.625858.0433283-.914718.1299862-.288859.0866579-.540805.2230619-.755846.409216-.21504.186154-.385143.4268669-.510316.7221458-.125172.2952788-.187758.6515339-.187758 1.0687757 0 .3979846.056167.7462159.168501 1.0447043s.263181.5456203.452545.741403c.189363.1957828.40761.3418152.654745.4381018.247136.0962866.50871.1444292.784732.1444292h1.011004v1.434663h-.97249c-.301698 0-.592158.0353045-.871389.1059147s-.527968.1973856-.746217.3803301c-.21825.1829445-.393168.4284717-.52476.7365887-.131591.3081171-.197386.7028862-.197386 1.1843192 0 .4429183.062585.8232446.187758 1.1409903.125172.3177458.30009.5777157.524759.7799175s.497477.3498391.818432.4429161.674001.1396149 1.059147.1396149c1.675387 0 2.513068-.8408903 2.513068-2.5226961v-3.8225584h2.994498v1.4539202h-1.376892v2.301238c0 .6162341-.091471 1.174688-.274415 1.6753782-.182945.5006903-.452543.9275544-.808803 1.2806053-.356261.3530508-.800777.6258587-1.333563.8184319s-1.149011.2888583-1.848693.2888583c-.616234 0-1.181107-.0882614-1.694636-.2647868-.513528-.1765254-.954835-.4300763-1.323934-.7606602-.369098-.330584-.657954-.7349816-.866575-1.213205s-.31293-1.0190249-.31293-1.6224209c0-.4493374.051352-.853735.154058-1.213205.102706-.3594699.242319-.6772109.418845-.9532324.176525-.2760216.386748-.5087107.630674-.6980743s.510315-.3386056.799174-.4477304v-.0770289c-.250345-.1412203-.483034-.3049051-.698074-.4910591-.21504-.1861541-.401191-.4011909-.558459-.6451169-.157268-.2439261-.27923-.5215482-.365887-.8328749-.086658-.3113266-.129987-.6659769-.129987-1.0639615 0-.6033959.09789-1.1361737.293673-1.5983493.195783-.4621757.47501-.8505257.837689-1.1650619.36268-.3145362.797567-.5520396 1.304677-.7125172.507109-.1604777 1.068772-.2407153 1.685007-.2407153zm16.734525 13.7689133h-2.233838l-4.121045-13.528198h1.916094l3.350756 11.6217331h.077029l3.447043-11.6217331h1.685007zm7.385145 0h-1.73315v-13.528198h1.73315zm2.763411 0v-13.528198h4.207703c.795969 0 1.510084.1380087 2.142366.4140302.632282.2760216 1.169874.688443 1.612792 1.2372765.442918.5488336.781521 1.2324581 1.015818 2.0508941.234298.818436.351445 1.7732637.351445 2.8645117 0 1.1554391-.117147 2.1680378-.351445 3.0378267-.234297.8697888-.5729 1.5951369-1.015818 2.176066s-.98051 1.0174217-1.612792 1.3094911c-.632282.2920693-1.346397.4381017-2.142366.4381017zm1.742778-11.9491059v10.3700138h2.301238c.532786 0 1.012607-.1010994 1.439478-.3033013.42687-.2022018.791149-.5055 1.092847-.9099037.301698-.4044036.534387-.9131102.698074-1.5261348s.24553-1.3303489.24553-2.1519945v-.9821183c0-.7510354-.081843-1.4089838-.24553-1.9738652-.163687-.5648813-.396376-1.033469-.698074-1.4057771-.301698-.3723082-.665977-.6515351-1.092847-.8376892-.426871-.186154-.906692-.2792297-1.439478-.2792297zm9.927098 11.9491059v-13.528198h8.348006v1.5790921h-6.605227v4.2365887h5.738652v1.5790922h-5.738652v4.5543329h6.72077v1.5790921zm15.694636-13.7689133c.828064 0 1.572669.1444277 2.233837.4332875.661168.2888597 1.219622.7253524 1.675378 1.309491.455757.5841387.805593 1.3126963 1.049519 2.1856947s.365887 1.8968304.365887 3.0715268-.121961 2.2001332-.365887 3.0763411c-.243926.876208-.593762 1.6047656-1.049519 2.1856947-.455756.580929-1.01421 1.015817-1.675378 1.3046767-.661168.2888598-1.405773.4332875-2.233837.4332875-.828065 0-1.571066-.1444277-2.229024-.4332875-.657958-.2888597-1.214807-.7237477-1.670564-1.3046767-.455756-.5809291-.805592-1.3094867-1.049518-2.1856947-.243926-.8762079-.365888-1.9016447-.365888-3.0763411s.121962-2.1985284.365888-3.0715268.593762-1.601556 1.049518-2.1856947c.455757-.5841386 1.012606-1.0206313 1.670564-1.309491.657958-.2888598 1.400959-.4332875 2.229024-.4332875zm0 1.5983494c-.539205 0-1.025445.1010994-1.458735.3033012-.43329.2022019-.802383.5087096-1.10729.9195323-.304908.4108228-.537597.9227388-.698075 1.5357635-.160477.6130246-.240715 1.3303489-.240715 2.1519945v.9917469c0 .8216455.080238 1.5405746.240715 2.1568088.160478.6162341.393167 1.1281501.698075 1.5357634.304907.4076132.674.7125162 1.10729.914718s.91953.3033012 1.458735.3033012c.545624 0 1.035073-.1010994 1.468363-.3033012.433289-.2022018.800778-.5071048 1.102476-.914718.301698-.4076133.534387-.9195293.698074-1.5357634.163687-.6162342.245529-1.3351633.245529-2.1568088v-.9917469c0-.8216456-.081842-1.5389699-.245529-2.1519945-.163687-.6130247-.396376-1.1249407-.698074-1.5357635-.301698-.4108227-.669187-.7173304-1.102476-.9195323-.43329-.2022018-.922739-.3033012-1.468363-.3033012zm9.416781 6.5859697v5.5845942h-1.742779v-13.528198h4.833563c.667587 0 1.253321.0962851 1.757221.2888583s.92595.4621716 1.266163.8088033c.340212.3466317.595368.7622626.765474 1.2469051s.255158 1.019025.255158 1.6031637c0 .5969768-.093075 1.1393831-.279229 1.6272352-.186154.487852-.454148.9082972-.803989 1.261348-.349842.3530508-.775101.6258587-1.275791.8184319-.500691.1925732-1.062354.2888583-1.685007.2888583zm0-6.3645117v4.7950482h3.033012c.346632 0 .659559-.0577711.93879-.173315s.519944-.2792287.722146-.4910592c.202201-.2118305.357862-.4669861.466987-.7654745s.163687-.6306722.163687-.9965612c0-.7381972-.19578-1.3175128-.587346-1.7379643-.391565-.4204514-.959648-.630674-1.704264-.630674zm18.525447 2.1664374c0 .8409029-.210223 1.5678558-.630674 2.1808804-.420452.6130246-1.009396 1.051122-1.76685 1.3143053l2.715268 6.2874828h-1.925722l-2.513068-5.9793672h-3.620357v5.9793672h-1.742779v-13.528198h5.449794c.661168 0 1.243693.0914709 1.747593.2744154s.925949.4381001 1.266162.7654745.595368.7205388.765475 1.1795048c.170106.4589661.255158.9676726.255158 1.5261348zm-7.741403-2.1664374v4.4002751h3.639615c.346631 0 .661163-.0529568.943604-.158872.28244-.1059153.523153-.256762.722145-.4525448.198993-.1957827.353049-.4316813.462174-.7077028.109124-.2760216.163686-.5809246.163686-.9147181 0-.6740061-.19578-1.2035744-.587345-1.5887207-.391566-.3851464-.959648-.5777167-1.704264-.5777167zm14.837689-1.8198074c.828065 0 1.57267.1444277 2.233838.4332875.661168.2888597 1.219621.7253524 1.675378 1.309491.455756.5841387.805592 1.3126963 1.049518 2.1856947.243927.8729984.365888 1.8968304.365888 3.0715268s-.121961 2.2001332-.365888 3.0763411c-.243926.876208-.593762 1.6047656-1.049518 2.1856947-.455757.580929-1.01421 1.015817-1.675378 1.3046767-.661168.2888598-1.405773.4332875-2.233838.4332875s-1.571065-.1444277-2.229023-.4332875c-.657959-.2888597-1.214808-.7237477-1.670564-1.3046767-.455757-.5809291-.805593-1.3094867-1.049519-2.1856947-.243926-.8762079-.365887-1.9016447-.365887-3.0763411s.121961-2.1985284.365887-3.0715268.593762-1.601556 1.049519-2.1856947c.455756-.5841386 1.012605-1.0206313 1.670564-1.309491.657958-.2888598 1.400958-.4332875 2.229023-.4332875zm0 1.5983494c-.539205 0-1.025445.1010994-1.458735.3033012-.433289.2022019-.802382.5087096-1.10729.9195323-.304907.4108228-.537596.9227388-.698074 1.5357635-.160478.6130246-.240715 1.3303489-.240715 2.1519945v.9917469c0 .8216455.080237 1.5405746.240715 2.1568088.160478.6162341.393167 1.1281501.698074 1.5357634.304908.4076132.674001.7125162 1.10729.914718.43329.2022018.91953.3033012 1.458735.3033012.545624 0 1.035073-.1010994 1.468363-.3033012s.800778-.5071048 1.102476-.914718c.301698-.4076133.534387-.9195293.698074-1.5357634.163688-.6162342.24553-1.3351633.24553-2.1568088v-.9917469c0-.8216456-.081842-1.5389699-.24553-2.1519945-.163687-.6130247-.396376-1.1249407-.698074-1.5357635-.301698-.4108227-.669186-.7173304-1.102476-.9195323-.43329-.2022018-.922739-.3033012-1.468363-.3033012zm7.674003 12.1705639v-13.528198h4.207703c.795969 0 1.510084.1380087 2.142365.4140302.632282.2760216 1.169874.688443 1.612793 1.2372765.442918.5488336.781521 1.2324581 1.015818 2.0508941.234298.818436.351445 1.7732637.351445 2.8645117 0 1.1554391-.117147 2.1680378-.351445 3.0378267-.234297.8697888-.5729 1.5951369-1.015818 2.176066-.442919.5809291-.980511 1.0174217-1.612793 1.3094911-.632281.2920693-1.346396.4381017-2.142365.4381017zm1.742778-11.9491059v10.3700138h2.301238c.532786 0 1.012607-.1010994 1.439478-.3033013.42687-.2022018.791149-.5055 1.092847-.9099037.301698-.4044036.534387-.9131102.698074-1.5261348s.24553-1.3303489.24553-2.1519945v-.9821183c0-.7510354-.081843-1.4089838-.24553-1.9738652-.163687-.5648813-.396376-1.033469-.698074-1.4057771-.301698-.3723082-.665977-.6515351-1.092847-.8376892-.426871-.186154-.906692-.2792297-1.439478-.2792297zm18.843191 7.5488308c0 .7638736-.101099 1.4330554-.303301 2.0075654s-.495871 1.0575404-.881018 1.4491059c-.385146.3915655-.853734.6852351-1.405777.8810179-.552043.1957827-1.174687.2936726-1.86795.2936726-.693264 0-1.315908-.0978899-1.867951-.2936726-.552043-.1957828-1.020631-.4894524-1.405777-.8810179s-.678816-.8745959-.881018-1.4491059-.303301-1.2436918-.303301-2.0075654v-9.1279229h1.73315v9.2338377c0 .9564467.242317 1.6850043.72696 2.1856946.484642.5006903 1.150615.7510316 1.997937.7510316s1.513294-.2503413 1.997936-.7510316c.484643-.5006903.726961-1.2292479.726961-2.1856946v-9.2338377h1.733149zm4.496562-1.9738652 5.363136-7.1540577h1.925722l-4.063274 5.4594223 4.207703 8.0687757h-1.973865l-3.292985-6.6052269-2.166437 2.4071527v4.1980742h-1.742779v-13.528198h1.742779zm8.03989-7.1540577h9.108665v1.5790921h-3.687758v11.9491059h-1.733149v-11.9491059h-3.687758zm12.61348 13.528198h-1.73315v-13.528198h1.73315zm7.674002-13.7689133c.828065 0 1.57267.1444277 2.233838.4332875.661168.2888597 1.219622.7253524 1.675378 1.309491.455757.5841387.805593 1.3126963 1.049519 2.1856947s.365887 1.8968304.365887 3.0715268-.121961 2.2001332-.365887 3.0763411c-.243926.876208-.593762 1.6047656-1.049519 2.1856947-.455756.580929-1.01421 1.015817-1.675378 1.3046767-.661168.2888598-1.405773.4332875-2.233838.4332875-.828064 0-1.571065-.1444277-2.229023-.4332875-.657958-.2888597-1.214807-.7237477-1.670564-1.3046767-.455756-.5809291-.805592-1.3094867-1.049518-2.1856947-.243927-.8762079-.365888-1.9016447-.365888-3.0763411s.121961-2.1985284.365888-3.0715268c.243926-.8729984.593762-1.601556 1.049518-2.1856947.455757-.5841386 1.012606-1.0206313 1.670564-1.309491.657958-.2888598 1.400959-.4332875 2.229023-.4332875zm0 1.5983494c-.539204 0-1.025444.1010994-1.458734.3033012-.43329.2022019-.802383.5087096-1.10729.9195323-.304908.4108228-.537597.9227388-.698075 1.5357635-.160477.6130246-.240715 1.3303489-.240715 2.1519945v.9917469c0 .8216455.080238 1.5405746.240715 2.1568088.160478.6162341.393167 1.1281501.698075 1.5357634.304907.4076132.674.7125162 1.10729.914718s.91953.3033012 1.458734.3033012c.545624 0 1.035074-.1010994 1.468364-.3033012.433289-.2022018.800778-.5071048 1.102475-.914718.301698-.4076133.534388-.9195293.698075-1.5357634.163687-.6162342.245529-1.3351633.245529-2.1568088v-.9917469c0-.8216456-.081842-1.5389699-.245529-2.1519945-.163687-.6130247-.396377-1.1249407-.698075-1.5357635-.301697-.4108227-.669186-.7173304-1.102475-.9195323-.43329-.2022018-.92274-.3033012-1.468364-.3033012zm16.590097 12.1705639h-1.444292l-5.055021-8.6176066c-.089867-.1476394-.184547-.3225574-.284044-.5247592-.099496-.2022019-.194176-.3995864-.284044-.5921596-.102705-.2182496-.205409-.449334-.308115-.69326l-.057772.0192572c.012838.237507.025676.4653818.038515.6836314.012838.1861541.022466.3819339.028886.5873453.006419.2054113.009628.3787246.009628.5199449v8.6176066h-1.559835v-13.528198h1.502063l5.035764 8.4924346c.07061.1283821.152452.2968812.245529.5055021s.184548.409215.274416.6017882c.096286.2310878.195781.4685911.298487.7125172l.057771-.0192573c-.012838-.2567642-.022466-.5006866-.028885-.7317744-.012839-.1989923-.020862-.3995863-.024072-.6017881-.003209-.2022019-.004814-.3578629-.004814-.4669877v-8.4924346h1.559835z" fill="#fff"/><path d="m237.416262.20000076v12.35395194l8.816701-12.35395194h5.025863l-7.135696 9.81099654 7.341533 14.3298969h-5.060169l-5.2317-10.7731958-3.756532 4.6219931v6.1512027h-4.528422v-24.14089344zm-16.158234 14.07216494h-4.665647v10.0687285h-4.494116v-24.14089344h10.086031c1.21216 0 2.278501.17181959 3.199056.51546392s1.689579.82187552 2.307094 1.4347079c.617515.61283239 1.083504 1.34020198 1.397979 2.18213059s.471711 1.7611634.471711 2.75773196c0 .7331079-.094342 1.42038625-.283027 2.06185567-.188685.64146941-.457414 1.225656-.806196 1.7525773s-.771888.9936979-1.269331 1.4003437c-.497442.4066457-1.060631.7359666-1.689581.9879725l4.648494 11.0481099h-4.888638zm.463134-10.05154638h-5.128781v6.08247418h4.95725c1.097805 0 1.898276-.2835023 2.401436-.85051542.503161-.56701314.754737-1.35451959.754737-2.36254295 0-.88202045-.237282-1.58075344-.711854-2.09621993-.474572-.5154665-1.23216-.77319588-2.272788-.77319588zm-13.276511 20.12027488h-15.557875v-24.14089344h15.352038v4.02061856h-10.857922v5.75601375h9.314142v4.02061853h-9.314142v6.3402062h11.063759zm-22.933714 0h-4.528423l-3.276244-15.37800684c-.068613-.3092799-.131507-.65864639-.188685-1.04810996-.057177-.38946358-.108636-.76173935-.154378-1.11683849-.045742-.4123732-.091483-.83046753-.137225-1.25429554h-.154378c-.068613.45819244-.125789.89919605-.171531 1.32302406-.057177.36655395-.108636.74455704-.154378 1.13402062-.045742.38946357-.097201.71019347-.154378.96219931l-3.241939 15.37800684h-4.528422l-5.2317-24.14089344h4.45981l2.881723 14.84536084c.057178.2634606.111495.5899179.162955.9793814.051459.3894636.100059.7617394.145801 1.1168385.045742.423828.097201.853377.154378 1.2886598h.137225c.045742-.4467376.091483-.8820139.137225-1.3058419.045742-.366554.094342-.7388297.145802-1.1168385.051459-.3780088.105777-.6987387.162954-.9621993l2.91603-14.84536084h5.094475l2.881723 14.84536084c.045742.240551.097201.5526899.154378.9364261s.108636.7588756.154378 1.1254296c.045742.423828.097201.8648316.154378 1.323024h.137225l.137225-1.2371134c.045742-.3436443.094342-.7130564.145802-1.1082474.051459-.395191.111494-.7416938.180107-1.0395189l2.950336-14.84536084h3.859451z" fill="#fff"/><path d="m10.2232564 0c1.2121595 0 2.372842.19186521 3.4820823.57560138 1.1092403.38373616 2.0869581.9507408 2.9331827 1.70103092.8462245.75029012 1.520907 1.6781159 2.0240675 2.78350516.5031606 1.10538926.7547371 2.37971787.7547371 3.82302405h-4.5970348c0-.82474639-.1257882-1.54638866-.3773685-2.16494845-.2515803-.6185598-.5917803-1.13974588-1.0206104-1.56357388-.42883-.42382801-.931983-.74169425-1.5094741-.95360825-.577491-.21191401-1.1921382-.31786942-1.8439598-.31786942-.9377083 0-1.74961428.17754691-2.43574231.53264605-.68612802.35509914-1.25217515.86483058-1.69815836 1.52920962-.44598322.66437904-.77474796 1.47479476-.9863041 2.43127148-.21155615.95647672-.31733263 2.03607644-.31733263 3.23883164v1.7697594c0 1.2256648.10863531 2.3195828.32590918 3.281787.21727388.9622041.55175627 1.7726198 1.00345722 2.4312714.45170095.6586517 1.0206069 1.1597921 1.70673492 1.5034365.68612803.3436443 1.49803401.5154639 2.43574228.5154639.6861281 0 1.3179281-.1374557 1.8954192-.4123711.5774911-.2749155 1.0749265-.6643732 1.492321-1.1683849.4173946-.5040117.7433005-1.1139712.9777276-1.8298969.234427-.7159257.3516388-1.5148868.3516388-2.3969072h-5.42038428v-3.8659794h10.01741908v13.1271477h-2.9160295l-.7718902-2.6804123c-.7776118 1.030933-1.7238825 1.8069848-2.8388405 2.3281787-1.1149581.5211939-2.3128053.7817869-3.59357757.7817869-1.47517525 0-2.79023423-.2491384-3.94521641-.7474227-1.15498217-.4982843-2.12698229-1.2600178-2.91602952-2.2852233-.78904722-1.0252056-1.39225906-2.3224435-1.80965361-3.8917526s-.62608869-3.4249607-.62608869-5.5670103c0-2.1305949.22870591-3.98051911.68612459-5.54982821.45741869-1.56930911 1.12066583-2.86941066 1.98976132-3.90034365.8690955-1.03093299 1.93829563-1.79839381 3.20763247-2.30240549 1.26933685-.50401169 2.71590173-.75601375 4.33973802-.75601375zm28.6628549 24.5704467v-4.0034364h-11.0637591v-6.3402062h9.3141414v-4.0206185h-9.3141414v-5.75601378h10.8579217v-4.02061855h-15.3520377v24.14089343zm11.4925869 0h-7.8389734v-24.14089343h7.8389734c1.4980462 0 2.8445523.24627474 4.0395586.73883161s2.2070299 1.22851744 3.0361013 2.20790378c.8290713.97938634 1.4665891 2.19930541 1.9125723 3.65979381.4459832 1.46048841.6689715 3.16436603.6689715 5.11168383 0 2.061866-.2229883 3.8688353-.6689715 5.4209622s-1.083501 2.8465011-1.9125723 3.8831615c-.8290714 1.0366604-1.841095 1.8155759-3.0361013 2.3367698s-2.5415124.7817869-4.0395586.7817869zm-.4288278-20.12027488h-2.9160296v16.11683848h2.9160296c.834789 0 1.5866597-.1575013 2.2556346-.4725086.6689748-.3150073 1.2407396-.7846475 1.7153114-1.4089347.4745719-.6242872.8376426-1.40893 1.0892228-2.3539519.2515803-.9450219.3773686-2.0475309.3773686-3.3075601v-1.7525773c0-1.1340263-.1257883-2.12771627-.3773686-2.98109969-.2515802-.85338342-.6146509-1.56357105-1.0892228-2.1305842-.4745718-.56701314-1.0463366-.99369845-1.7153114-1.28006872-.6689749-.28637028-1.4208456-.42955327-2.2556346-.42955327zm32.0248653 20.12027488h-4.5970347l-1.4751679-4.742268h-8.8853135l-1.4408616 4.742268h-4.3568912l7.770361-24.14089343h5.2317zm-10.5663187-20.08591062c-.0686128.42382801-.1429422.8304677-.2229905 1.21993127-.0686128.33218952-.1429422.68728334-.2229905 1.0652921s-.165813.70446598-.2572967.97938144l-2.4528954 8.05841921h6.4152649l-2.4185892-8.05841921c-.0914837-.3207347-.1829661-.6701012-.2744498-1.04810996-.0914838-.37800877-.1658132-.73310258-.2229905-1.0652921-.0800483-.37800876-.1486601-.76173917-.2058374-1.15120275zm29.29752 20.08591062v-24.14089343h-4.0138288v13.91752573c0 .2176414.0057177.4410069.0171532.6701031 0 .2634607.0057176.5498267.0171531.8591066l-.1029187.1030927c-.1372256-.3092799-.2687315-.6071005-.3945217-.8934707-.1143546-.2405511-.2372841-.4868258-.3687919-.7388317-.1315079-.2520058-.243002-.4581893-.3344858-.6185567l-7.4444518-13.29896903h-3.9623695v24.14089343h3.9623695v-13.4364261c0-.1603673-.0028588-.3522325-.0085766-.5756014-.0057177-.2233688-.0142942-.4438706-.0257296-.66151198-.0114355-.25200585-.0228708-.50973523-.0343063-.77319588l.137225-.10309278c.1600965.33218952.3087553.64719209.4459809.94501718.1257902.25200586.2487196.50114426.368792.74742266.1200724.2462785.2144136.4324163.2830264.5584193l7.4444518 13.298969zm8.730936-24.14089343h-4.528423v24.14089343h4.528423v-6.1512027l3.756532-4.6219931 5.2317 10.7731958h5.060169l-7.341534-14.3298969 7.135696-9.81099653h-5.025862l-8.816701 12.35395193zm31.819028 24.14089343v-4.0034364h-11.06376v-6.3402062h9.314142v-4.0206185h-9.314142v-5.75601378h10.857922v-4.02061855h-15.352038v24.14089343zm20.240675 0v-24.14089343h-4.013829v13.91752573c0 .2176414.005718.4410069.017153.6701031 0 .2634607.005718.5498267.017153.8591066l-.102918.1030927c-.137226-.3092799-.268732-.6071005-.394522-.8934707-.114355-.2405511-.237284-.4868258-.368792-.7388317-.131508-.2520058-.243002-.4581893-.334486-.6185567l-7.444451-13.29896903h-3.96237v24.14089343h3.96237v-13.4364261c0-.1603673-.002859-.3522325-.008577-.5756014-.005718-.2233688-.014294-.4438706-.02573-.66151198-.011435-.25200585-.02287-.50973523-.034306-.77319588l.137225-.10309278c.160097.33218952.308755.64719209.445981.94501718.12579.25200586.24872.50114426.368792.74742266.120072.2462785.214414.4324163.283026.5584193l7.444452 13.298969zm96.503424 0h-4.854331v-4.8281787h4.854331z" fill="#5ceb00"/></g></svg>