<svg height="55" viewBox="0 0 1440 55" width="1440" xmlns="http://www.w3.org/2000/svg"><g fill="#fff" fill-rule="evenodd" opacity=".078261" transform="translate(-414)"><path d="m739.737974 54.1745095h-17.737974l31.05964-53.79687497h17.737974zm69 0h-17.737974l31.05964-53.79687497h17.737974zm-34 0h-17.737974l31.05964-53.79687497h17.737974zm68 0h-17.737974l31.05964-53.79687497h17.737974zm69 0h-17.737974l31.05964-53.79687497h17.737974zm34 0h-17.737974l31.05964-53.79687497h17.737974zm34 0h-17.737974l31.05964-53.79687497h17.73797zm33.999996 0h-17.73797l31.05964-53.79687497h17.73797zm-136.999996 0h-17.737974l31.05964-53.79687497h17.737974zm-448 0h-17.737974l31.05964-53.79687497h17.737974zm70.536082-.3776345h-17.737973l31.05964-53.796875h17.737973zm-34.536082.3776345h-17.737974l31.05964-53.79687497h17.737974zm68.804123-.3776345h-17.737973l31.05964-53.796875h17.737974zm68.536083 0h-17.737974l31.059641-53.796875h17.737973zm34.3965 0h-17.737973l31.05964-53.796875h17.737974zm34 0h-17.737973l31.05964-53.796875h17.737974zm34 0h-17.737973l31.05964-53.796875h17.737974zm-136.664541 0h-17.737974l31.05964-53.796875h17.737974zm792.664541 0h-17.73797l31.05964-53.796875h17.73797zm34 0h-17.73797l31.05964-53.796875h17.73797zm34 0h-17.73797l31.05964-53.796875h17.73797zm34 0h-17.73797l31.05964-53.796875h17.73797zm34 0h-17.73797l31.05964-53.796875h17.73797zm-1376.736706 0h-17.737974l31.05964-53.796875h17.737974zm-34.0000004 0h-17.7379736l31.0596403-53.796875h17.7379737zm-34 0h-17.7379736l31.0596403-53.796875h17.7379736zm-34 0h-17.7379736l31.0596403-53.796875h17.7379736zm170.5360824 0h-17.737973l31.05964-53.796875h17.737973zm-34.268041 0h-17.737974l31.059641-53.796875h17.737973zm68.536082 0h-17.737973l31.05964-53.796875h17.737974zm68.536083 0h-17.737974l31.059641-53.796875h17.737973zm34.3965 0h-17.737973l31.05964-53.796875h17.737974zm34 0h-17.737973l31.05964-53.796875h17.737974zm34 0h-17.737973l31.05964-53.796875h17.737974zm-136.664541 0h-17.737974l31.05964-53.796875h17.737974zm861.927831.3776345h-17.73797l31.05964-53.79687497h17.73797zm-35 0h-17.73797l31.05964-53.79687497h17.73797zm-34 0h-17.73797l31.05964-53.79687497h17.73797zm138 0h-17.73797l31.05964-53.79687497h17.73797zm-34 0h-17.73797l31.05964-53.79687497h17.73797zm68 0h-17.73797l31.05964-53.79687497h17.73797zm69 0h-17.73797l31.05964-53.79687497h17.73797zm34 0h-17.73797l31.05964-53.79687497h17.73797zm-69 0h-17.73797l31.05964-53.79687497h17.73797z"/><path d="m2252.73797 54.1745095h-17.73797l31.05964-53.79687497h17.73797zm69 0h-17.73797l31.05964-53.79687497h17.73797zm-34 0h-17.73797l31.05964-53.79687497h17.73797zm68 0h-17.73797l31.05964-53.79687497h17.73797zm69 0h-17.73797l31.05964-53.79687497h17.73797zm34 0h-17.73797l31.05964-53.79687497h17.73797zm34 0h-17.73797l31.05964-53.79687497h17.73797zm34 0h-17.73797l31.05964-53.79687497h17.73797zm-137 0h-17.73797l31.05964-53.79687497h17.73797zm-448 0h-17.73797l31.05964-53.79687497h17.73797zm70.53609-.3776345h-17.73798l31.05964-53.796875h17.73798zm-34.53609.3776345h-17.73797l31.05964-53.79687497h17.73797zm68.80413-.3776345h-17.73798l31.05964-53.796875h17.73798zm68.53608 0h-17.73797l31.05964-53.796875h17.73797zm34.3965 0h-17.73797l31.05964-53.796875h17.73797zm34 0h-17.73797l31.05964-53.796875h17.73797zm34 0h-17.73797l31.05964-53.796875h17.73797zm-136.66454 0h-17.73797l31.05964-53.796875h17.73797zm792.66454 0h-17.73797l31.05964-53.796875h17.73797zm34 0h-17.73797l31.05964-53.796875h17.73797zm34 0h-17.73797l31.05964-53.796875h17.73797zm34 0h-17.73797l31.05964-53.796875h17.73797zm34 0h-17.73797l31.05964-53.796875h17.73797zm-1376.73671 0h-17.73797l31.05964-53.796875h17.73797zm-34 0h-17.73797l31.05964-53.796875h17.73797zm-34 0h-17.73797l31.05964-53.796875h17.73797zm-34 0h-17.73797l31.05964-53.796875h17.73797zm170.53609 0h-17.73798l31.05964-53.796875h17.73798zm-34.26805 0h-17.73797l31.05964-53.796875h17.73798zm68.53609 0h-17.73798l31.05964-53.796875h17.73798zm68.53608 0h-17.73797l31.05964-53.796875h17.73797zm34.3965 0h-17.73797l31.05964-53.796875h17.73797zm34 0h-17.73797l31.05964-53.796875h17.73797zm34 0h-17.73797l31.05964-53.796875h17.73797zm-136.66454 0h-17.73797l31.05964-53.796875h17.73797zm861.92783.3776345h-17.73797l31.05964-53.79687497h17.73797zm-35 0h-17.73797l31.05964-53.79687497h17.73797zm-34 0h-17.73797l31.05964-53.79687497h17.73797zm138 0h-17.73797l31.05964-53.79687497h17.73797zm-34 0h-17.73797l31.05964-53.79687497h17.73797zm68 0h-17.73797l31.05964-53.79687497h17.73797zm69 0h-17.73797l31.05964-53.79687497h17.73797zm34 0h-17.73797l31.05964-53.79687497h17.73797zm-69 0h-17.73797l31.05964-53.79687497h17.73797z"/></g></svg>