<?xml version="1.0" encoding="UTF-8"?>
<svg width="1440px" height="55px" viewBox="0 0 1440 55" version="1.1" xmlns="http://www.w3.org/2000/svg" xmlns:xlink="http://www.w3.org/1999/xlink">
    <!-- Generator: Sketch 42 (36781) - http://www.bohemiancoding.com/sketch -->
    <title>Stripes</title>
    <desc>Created with Sketch.</desc>
    <defs></defs>
    <g id="Gedankenwerk" stroke="none" stroke-width="1" fill="none" fill-rule="evenodd" opacity="0.0782608711">
        <g transform="translate(0.000000, -1027.000000)" id="Unsere-Arbeit" fill="#FFFFFF">
            <g transform="translate(-44.000000, 1027.000000)">
                <path d="M739.737974,54.1745095 L722,54.1745095 L753.05964,0.377634533 L770.797614,0.377634533 L739.737974,54.1745095 L739.737974,54.1745095 Z M808.737974,54.1745095 L791,54.1745095 L822.05964,0.377634533 L839.797614,0.377634533 L808.737974,54.1745095 Z M774.737974,54.1745095 L757,54.1745095 L788.05964,0.377634533 L805.797614,0.377634533 L774.737974,54.1745095 L774.737974,54.1745095 Z M842.737974,54.1745095 L825,54.1745095 L856.05964,0.377634533 L873.797614,0.377634533 L842.737974,54.1745095 L842.737974,54.1745095 Z M911.737974,54.1745095 L894,54.1745095 L925.05964,0.377634533 L942.797614,0.377634533 L911.737974,54.1745095 L911.737974,54.1745095 Z M945.737974,54.1745095 L928,54.1745095 L959.05964,0.377634533 L976.797614,0.377634533 L945.737974,54.1745095 L945.737974,54.1745095 Z M979.737974,54.1745095 L962,54.1745095 L993.05964,0.377634533 L1010.79761,0.377634533 L979.737974,54.1745095 L979.737974,54.1745095 Z M1013.73797,54.1745095 L996,54.1745095 L1027.05964,0.377634533 L1044.79761,0.377634533 L1013.73797,54.1745095 L1013.73797,54.1745095 Z M876.737974,54.1745095 L859,54.1745095 L890.05964,0.377634533 L907.797614,0.377634533 L876.737974,54.1745095 Z M428.737974,54.1745095 L411,54.1745095 L442.05964,0.377634533 L459.797614,0.377634533 L428.737974,54.1745095 L428.737974,54.1745095 Z M499.274056,53.796875 L481.536083,53.796875 L512.595723,0 L530.333696,0 L499.274056,53.796875 L499.274056,53.796875 Z M464.737974,54.1745095 L447,54.1745095 L478.05964,0.377634533 L495.797614,0.377634533 L464.737974,54.1745095 L464.737974,54.1745095 Z M533.542097,53.796875 L515.804124,53.796875 L546.863764,0 L564.601738,0 L533.542097,53.796875 L533.542097,53.796875 Z M602.07818,53.796875 L584.340206,53.796875 L615.399847,0 L633.13782,0 L602.07818,53.796875 L602.07818,53.796875 Z M636.47468,53.796875 L618.736707,53.796875 L649.796347,0 L667.534321,0 L636.47468,53.796875 L636.47468,53.796875 Z M670.47468,53.796875 L652.736707,53.796875 L683.796347,0 L701.534321,0 L670.47468,53.796875 Z M704.47468,53.796875 L686.736707,53.796875 L717.796347,0 L735.534321,0 L704.47468,53.796875 L704.47468,53.796875 Z M567.810139,53.796875 L550.072165,53.796875 L581.131805,0 L598.869779,0 L567.810139,53.796875 L567.810139,53.796875 Z M1360.47468,53.796875 L1342.73671,53.796875 L1373.79635,0 L1391.53432,2.27373675e-13 L1360.47468,53.796875 L1360.47468,53.796875 Z M1394.47468,53.796875 L1376.73671,53.796875 L1407.79635,0 L1425.53432,2.27373675e-13 L1394.47468,53.796875 L1394.47468,53.796875 Z M1428.47468,53.796875 L1410.73671,53.796875 L1441.79635,0 L1459.53432,2.27373675e-13 L1428.47468,53.796875 L1428.47468,53.796875 Z M1462.47468,53.796875 L1444.73671,53.796875 L1475.79635,0 L1493.53432,2.27373675e-13 L1462.47468,53.796875 L1462.47468,53.796875 Z M1496.47468,53.796875 L1478.73671,53.796875 L1509.79635,0 L1527.53432,2.27373675e-13 L1496.47468,53.796875 L1496.47468,53.796875 Z M119.737974,53.796875 L102,53.796875 L133.05964,0 L150.797614,0 L119.737974,53.796875 L119.737974,53.796875 Z M85.7379736,53.796875 L68,53.796875 L99.0596403,0 L116.797614,0 L85.7379736,53.796875 L85.7379736,53.796875 Z M51.7379736,53.796875 L34,53.796875 L65.0596403,0 L82.7976139,0 L51.7379736,53.796875 L51.7379736,53.796875 Z M17.7379736,53.796875 L0,53.796875 L31.0596403,0 L48.7976139,0 L17.7379736,53.796875 L17.7379736,53.796875 Z M188.274056,53.796875 L170.536083,53.796875 L201.595723,0 L219.333696,0 L188.274056,53.796875 Z M154.006015,53.796875 L136.268041,53.796875 L167.327682,0 L185.065655,0 L154.006015,53.796875 L154.006015,53.796875 Z M222.542097,53.796875 L204.804124,53.796875 L235.863764,0 L253.601738,0 L222.542097,53.796875 L222.542097,53.796875 Z M291.07818,53.796875 L273.340206,53.796875 L304.399847,0 L322.13782,0 L291.07818,53.796875 L291.07818,53.796875 Z M325.47468,53.796875 L307.736707,53.796875 L338.796347,0 L356.534321,0 L325.47468,53.796875 L325.47468,53.796875 Z M359.47468,53.796875 L341.736707,53.796875 L372.796347,0 L390.534321,0 L359.47468,53.796875 Z M393.47468,53.796875 L375.736707,53.796875 L406.796347,0 L424.534321,0 L393.47468,53.796875 Z M256.810139,53.796875 L239.072165,53.796875 L270.131805,0 L287.869779,0 L256.810139,53.796875 L256.810139,53.796875 Z M1118.73797,54.1745095 L1101,54.1745095 L1132.05964,0.377634533 L1149.79761,0.377634533 L1118.73797,54.1745095 Z M1083.73797,54.1745095 L1066,54.1745095 L1097.05964,0.377634533 L1114.79761,0.377634533 L1083.73797,54.1745095 L1083.73797,54.1745095 Z M1049.73797,54.1745095 L1032,54.1745095 L1063.05964,0.377634533 L1080.79761,0.377634533 L1049.73797,54.1745095 L1049.73797,54.1745095 Z M1187.73797,54.1745095 L1170,54.1745095 L1201.05964,0.377634533 L1218.79761,0.377634533 L1187.73797,54.1745095 L1187.73797,54.1745095 Z M1153.73797,54.1745095 L1136,54.1745095 L1167.05964,0.377634533 L1184.79761,0.377634533 L1153.73797,54.1745095 L1153.73797,54.1745095 Z M1221.73797,54.1745095 L1204,54.1745095 L1235.05964,0.377634533 L1252.79761,0.377634533 L1221.73797,54.1745095 L1221.73797,54.1745095 Z M1290.73797,54.1745095 L1273,54.1745095 L1304.05964,0.377634533 L1321.79761,0.377634533 L1290.73797,54.1745095 L1290.73797,54.1745095 Z M1324.73797,54.1745095 L1307,54.1745095 L1338.05964,0.377634533 L1355.79761,0.377634533 L1324.73797,54.1745095 L1324.73797,54.1745095 Z M1255.73797,54.1745095 L1238,54.1745095 L1269.05964,0.377634533 L1286.79761,0.377634533 L1255.73797,54.1745095 L1255.73797,54.1745095 Z" id="Stripes"></path>
            </g>
        </g>
    </g>
</svg>