<?xml version="1.0" encoding="UTF-8"?>
<svg width="1440px" height="120px" viewBox="0 0 1440 120" version="1.1" xmlns="http://www.w3.org/2000/svg" xmlns:xlink="http://www.w3.org/1999/xlink">
    <!-- Generator: Sketch 42 (36781) - http://www.bohemiancoding.com/sketch -->
    <title>Stripes</title>
    <desc>Created with Sketch.</desc>
    <defs></defs>
    <g id="Gedankenwerk" stroke="none" stroke-width="1" fill="none" fill-rule="evenodd" opacity="0.0782608711">
        <g transform="translate(0.000000, -509.000000)" id="Intro" fill="#FFFFFF">
            <g transform="translate(-920.000000, 130.000000)">
                <path d="M99.4048241,379 L30.1227918,499 L0.0996824336,499 L69.3817147,379 L99.4048241,379 Z M159.404824,379 L90.1227918,499 L60.0996824,499 L129.381715,379 L159.404824,379 Z M219.404824,379 L150.122792,499 L120.099682,499 L189.381715,379 L219.404824,379 Z M279.404824,379 L210.122792,499 L180.099682,499 L249.381715,379 L279.404824,379 Z M339.404824,379 L270.122792,499 L240.099682,499 L309.381715,379 L339.404824,379 Z M399.404824,379 L330.122792,499 L300.099682,499 L369.381715,379 L399.404824,379 Z M459.404824,379 L390.122792,499 L360.099682,499 L429.381715,379 L459.404824,379 Z M519.404824,379 L450.122792,499 L420.099682,499 L489.381715,379 L519.404824,379 Z M579.404824,379 L510.122792,499 L480.099682,499 L549.381715,379 L579.404824,379 Z M639.404824,379 L570.122792,499 L540.099682,499 L609.381715,379 L639.404824,379 Z M699.404824,379 L630.122792,499 L600.099682,499 L669.381715,379 L699.404824,379 Z M759.404824,379 L690.122792,499 L660.099682,499 L729.381715,379 L759.404824,379 Z M819.404824,379 L750.122792,499 L720.099682,499 L789.381715,379 L819.404824,379 Z M879.404824,379 L810.122792,499 L780.099682,499 L849.381715,379 L879.404824,379 Z M939.404824,379 L870.122792,499 L840.099682,499 L909.381715,379 L939.404824,379 Z M999.404824,379 L930.122792,499 L900.099682,499 L969.381715,379 L999.404824,379 Z M1059.40482,379 L990.122792,499 L960.099682,499 L1029.38171,379 L1059.40482,379 Z M1119.40482,379 L1050.12279,499 L1020.09968,499 L1089.38171,379 L1119.40482,379 Z M1179.40482,379 L1110.12279,499 L1080.09968,499 L1149.38171,379 L1179.40482,379 Z M1239.40482,379 L1170.12279,499 L1140.09968,499 L1209.38171,379 L1239.40482,379 Z M1299.40482,379 L1230.12279,499 L1200.09968,499 L1269.38171,379 L1299.40482,379 Z M1359.40482,379 L1290.12279,499 L1260.09968,499 L1329.38171,379 L1359.40482,379 Z M1419.40482,379 L1350.12279,499 L1320.09968,499 L1389.38171,379 L1419.40482,379 Z M1479.40482,379 L1410.12279,499 L1380.09968,499 L1449.38171,379 L1479.40482,379 Z M1539.40482,379 L1470.12279,499 L1440.09968,499 L1509.38171,379 L1539.40482,379 Z M1599.40482,379 L1530.12279,499 L1500.09968,499 L1569.38171,379 L1599.40482,379 Z M1659.40482,379 L1590.12279,499 L1560.09968,499 L1629.38171,379 L1659.40482,379 Z M1720.40482,379 L1651.12279,499 L1621.09968,499 L1690.38171,379 L1720.40482,379 Z M1780.40482,379 L1711.12279,499 L1681.09968,499 L1750.38171,379 L1780.40482,379 Z M1840.40482,379 L1771.12279,499 L1741.09968,499 L1810.38171,379 L1840.40482,379 Z M1900.40482,379 L1831.12279,499 L1801.09968,499 L1870.38171,379 L1900.40482,379 Z M1960.40482,379 L1891.12279,499 L1861.09968,499 L1930.38171,379 L1960.40482,379 Z M2020.40482,379 L1951.12279,499 L1921.09968,499 L1990.38171,379 L2020.40482,379 Z M2080.40482,379 L2011.12279,499 L1981.09968,499 L2050.38171,379 L2080.40482,379 Z M2140.40482,379 L2071.12279,499 L2041.09968,499 L2110.38171,379 L2140.40482,379 Z M2200.40482,379 L2131.12279,499 L2101.09968,499 L2170.38171,379 L2200.40482,379 Z M2260.40482,379 L2191.12279,499 L2161.09968,499 L2230.38171,379 L2260.40482,379 Z M2320.40482,379 L2251.12279,499 L2221.09968,499 L2290.38171,379 L2320.40482,379 Z M2380.40482,379 L2311.12279,499 L2281.09968,499 L2350.38171,379 L2380.40482,379 Z M2440.40482,379 L2371.12279,499 L2341.09968,499 L2410.38171,379 L2440.40482,379 Z M2500.40482,379 L2431.12279,499 L2401.09968,499 L2470.38171,379 L2500.40482,379 Z M2560.40482,379 L2491.12279,499 L2461.09968,499 L2530.38171,379 L2560.40482,379 Z M2620.40482,379 L2551.12279,499 L2521.09968,499 L2590.38171,379 L2620.40482,379 Z M2680.40482,379 L2611.12279,499 L2581.09968,499 L2650.38171,379 L2680.40482,379 Z M2740.40482,379 L2671.12279,499 L2641.09968,499 L2710.38171,379 L2740.40482,379 Z M2800.40482,379 L2731.12279,499 L2701.09968,499 L2770.38171,379 L2800.40482,379 Z M2860.40482,379 L2791.12279,499 L2761.09968,499 L2830.38171,379 L2860.40482,379 Z M2920.40482,379 L2851.12279,499 L2821.09968,499 L2890.38171,379 L2920.40482,379 Z M2980.40482,379 L2911.12279,499 L2881.09968,499 L2950.38171,379 L2980.40482,379 Z M3040.40482,379 L2971.12279,499 L2941.09968,499 L3010.38171,379 L3040.40482,379 Z M3100.40482,379 L3031.12279,499 L3001.09968,499 L3070.38171,379 L3100.40482,379 Z M3160.40482,379 L3091.12279,499 L3061.09968,499 L3130.38171,379 L3160.40482,379 Z M3220.40482,379 L3151.12279,499 L3121.09968,499 L3190.38171,379 L3220.40482,379 Z M3280.40482,379 L3211.12279,499 L3181.09968,499 L3250.38171,379 L3280.40482,379 Z" id="Stripes"></path>
            </g>
        </g>
    </g>
</svg>