<svg height="120" viewBox="0 0 6522 120" width="6522" xmlns="http://www.w3.org/2000/svg"><g fill="#fff" fill-rule="evenodd" opacity=".078261" transform="translate(-2290)"><path d="m99.4048241 0-69.2820323 120h-30.02310937l69.28203227-120zm59.9999999 0-69.2820322 120h-30.0231094l69.2820326-120zm60 0-69.282032 120h-30.02311l69.282033-120zm60 0-69.282032 120h-30.02311l69.282033-120zm60 0-69.282032 120h-30.02311l69.282033-120zm60 0-69.282032 120h-30.02311l69.282033-120zm60 0-69.282032 120h-30.02311l69.282033-120zm60 0-69.282032 120h-30.02311l69.282033-120zm60 0-69.282032 120h-30.02311l69.282033-120zm60 0-69.282032 120h-30.02311l69.282033-120zm60 0-69.282032 120h-30.02311l69.282033-120zm60 0-69.282032 120h-30.02311l69.282033-120zm60 0-69.282032 120h-30.02311l69.282033-120zm60 0-69.282032 120h-30.02311l69.282033-120zm60 0-69.282032 120h-30.02311l69.282033-120zm60 0-69.282032 120h-30.02311l69.282033-120zm59.999996 0-69.282028 120h-30.02311l69.282028-120zm60 0-69.28203 120h-30.02311l69.28203-120zm60 0-69.28203 120h-30.02311l69.28203-120zm60 0-69.28203 120h-30.02311l69.28203-120zm60 0-69.28203 120h-30.02311l69.28203-120zm60 0-69.28203 120h-30.02311l69.28203-120zm60 0-69.28203 120h-30.02311l69.28203-120zm60 0-69.28203 120h-30.02311l69.28203-120zm60 0-69.28203 120h-30.02311l69.28203-120zm60 0-69.28203 120h-30.02311l69.28203-120zm60 0-69.28203 120h-30.02311l69.28203-120zm61 0-69.28203 120h-30.02311l69.28203-120zm60 0-69.28203 120h-30.02311l69.28203-120zm60 0-69.28203 120h-30.02311l69.28203-120zm60 0-69.28203 120h-30.02311l69.28203-120zm60 0-69.28203 120h-30.02311l69.28203-120zm60 0-69.28203 120h-30.02311l69.28203-120zm60 0-69.28203 120h-30.02311l69.28203-120zm60 0-69.28203 120h-30.02311l69.28203-120zm60 0-69.28203 120h-30.02311l69.28203-120zm60 0-69.28203 120h-30.02311l69.28203-120zm60 0-69.28203 120h-30.02311l69.28203-120zm60 0-69.28203 120h-30.02311l69.28203-120zm60 0-69.28203 120h-30.02311l69.28203-120zm60 0-69.28203 120h-30.02311l69.28203-120zm60 0-69.28203 120h-30.02311l69.28203-120zm60 0-69.28203 120h-30.02311l69.28203-120zm60 0-69.28203 120h-30.02311l69.28203-120zm60 0-69.28203 120h-30.02311l69.28203-120zm60 0-69.28203 120h-30.02311l69.28203-120zm60 0-69.28203 120h-30.02311l69.28203-120zm60 0-69.28203 120h-30.02311l69.28203-120zm60 0-69.28203 120h-30.02311l69.28203-120zm60 0-69.28203 120h-30.02311l69.28203-120zm60 0-69.28203 120h-30.02311l69.28203-120zm60 0-69.28203 120h-30.02311l69.28203-120zm60 0-69.28203 120h-30.02311l69.28203-120zm60 0-69.28203 120h-30.02311l69.28203-120z"/><path d="m3340.30514 0-69.28203 120h-30.02311l69.28203-120zm60 0-69.28203 120h-30.02311l69.28203-120zm60 0-69.28203 120h-30.02311l69.28203-120zm60 0-69.28203 120h-30.02311l69.28203-120zm60 0-69.28203 120h-30.02311l69.28203-120zm60 0-69.28203 120h-30.02311l69.28203-120zm60 0-69.28203 120h-30.02311l69.28203-120zm60 0-69.28203 120h-30.02311l69.28203-120zm60 0-69.28203 120h-30.02311l69.28203-120zm60 0-69.28203 120h-30.02311l69.28203-120zm60 0-69.28203 120h-30.02311l69.28203-120zm60 0-69.28203 120h-30.02311l69.28203-120zm60 0-69.28203 120h-30.02311l69.28203-120zm60 0-69.28203 120h-30.02311l69.28203-120zm60 0-69.28203 120h-30.02311l69.28203-120zm60 0-69.28203 120h-30.02311l69.28203-120zm60 0-69.28203 120h-30.02311l69.28203-120zm60 0-69.28203 120h-30.02311l69.28203-120zm60 0-69.28203 120h-30.02311l69.28203-120zm60 0-69.28203 120h-30.02311l69.28203-120zm60 0-69.28203 120h-30.02311l69.28203-120zm60 0-69.28203 120h-30.02311l69.28203-120zm60 0-69.28203 120h-30.02311l69.28203-120zm60 0-69.28203 120h-30.02311l69.28203-120zm60 0-69.28203 120h-30.02311l69.28203-120zm60 0-69.28203 120h-30.02311l69.28203-120zm60 0-69.28203 120h-30.02311l69.28203-120zm61 0-69.28203 120h-30.02311l69.28203-120zm60 0-69.28203 120h-30.02311l69.28203-120zm60 0-69.28203 120h-30.02311l69.28203-120zm60 0-69.28203 120h-30.02311l69.28203-120zm60 0-69.28203 120h-30.02311l69.28203-120zm60 0-69.28203 120h-30.02311l69.28203-120zm60 0-69.28203 120h-30.02311l69.28203-120zm60 0-69.28203 120h-30.02311l69.28203-120zm60 0-69.28203 120h-30.02311l69.28203-120zm60 0-69.28203 120h-30.02311l69.28203-120zm60 0-69.28203 120h-30.02311l69.28203-120zm60 0-69.28203 120h-30.02311l69.28203-120zm60 0-69.28203 120h-30.02311l69.28203-120zm60 0-69.28203 120h-30.02311l69.28203-120zm60 0-69.28203 120h-30.02311l69.28203-120zm60 0-69.28203 120h-30.02311l69.28203-120zm60 0-69.28203 120h-30.02311l69.28203-120zm60 0-69.28203 120h-30.02311l69.28203-120zm60 0-69.28203 120h-30.02311l69.28203-120zm60 0-69.28203 120h-30.02311l69.28203-120zm60 0-69.28203 120h-30.02311l69.28203-120zm60 0-69.28203 120h-30.02311l69.28203-120zm60 0-69.28203 120h-30.02311l69.28203-120zm60 0-69.28203 120h-30.02311l69.28203-120zm60 0-69.28203 120h-30.02311l69.28203-120zm60 0-69.28203 120h-30.02311l69.28203-120zm60 0-69.28203 120h-30.02311l69.28203-120z"/></g></svg>